<svg xmlns="http://www.w3.org/2000/svg" width="324" height="42" viewBox="0 0 324 42">
  <path id="Story-news" d="M16.927,3.184q-7.034,0-10.99-4.508T1.98-14.138a23.009,23.009,0,0,1,1.736-9.373A13.139,13.139,0,0,1,8.6-29.443a13.176,13.176,0,0,1,7.276-2.017,9.609,9.609,0,0,1,5.056,1.566,10.141,10.141,0,0,1,1.934,1.519A8.582,8.582,0,0,1,24.4-30.321q.791-.617.879-.664h1.1v9.017H24.62A14.53,14.53,0,0,0,22.906-26.1a10.125,10.125,0,0,0-2.616-2.99,5.761,5.761,0,0,0-3.583-1.186q-3.033,0-5.034,3.8t-2,12.339q0,8.685,2.176,12.41A6.647,6.647,0,0,0,17.806,2,6.935,6.935,0,0,0,21.741.74a9.584,9.584,0,0,0,3.033-3.346,8.925,8.925,0,0,0,1.165-4.414h1.1A10.028,10.028,0,0,1,25.7-1.965a10.268,10.268,0,0,1-3.649,3.749A9.684,9.684,0,0,1,16.927,3.184Zm20-1.424,2.638-.712v-30.61H34.512a11.433,11.433,0,0,1-1.451,5.553,7.062,7.062,0,0,1-1.407,1.8H30.335v-8.542H56.053v8.542H54.734a6.588,6.588,0,0,1-1.451-1.8,11.354,11.354,0,0,1-1.407-5.553H46.821V1.048l2.638.712v.712H36.93ZM73.2,3.184a13.941,13.941,0,0,1-7.539-2.017,13.088,13.088,0,0,1-4.99-5.908,22.719,22.719,0,0,1-1.758-9.4,22.719,22.719,0,0,1,1.758-9.4,13.088,13.088,0,0,1,4.99-5.908A13.941,13.941,0,0,1,73.2-31.46a13.941,13.941,0,0,1,7.539,2.017,13.088,13.088,0,0,1,4.99,5.908,22.719,22.719,0,0,1,1.758,9.4,22.719,22.719,0,0,1-1.758,9.4,13.088,13.088,0,0,1-4.99,5.908A13.941,13.941,0,0,1,73.2,3.184Zm0-.949A4.342,4.342,0,0,0,76.386.669a12.283,12.283,0,0,0,2.44-5.22,38.634,38.634,0,0,0,.967-9.586,38.634,38.634,0,0,0-.967-9.586,12.283,12.283,0,0,0-2.44-5.22A4.342,4.342,0,0,0,73.2-30.511a4.342,4.342,0,0,0-3.187,1.566,12.283,12.283,0,0,0-2.44,5.22,38.634,38.634,0,0,0-.967,9.586,38.634,38.634,0,0,0,.967,9.586,12.283,12.283,0,0,0,2.44,5.22A4.342,4.342,0,0,0,73.2,2.235ZM92.322,1.76l2.638-.712V-29.324l-2.638-.712v-.712h12.309q7.3,0,10.463,2.586t3.165,7.617q0,5.031-3.165,7.617t-10.463,2.586h-2.418V1.048l2.638.712v.712H92.322Zm12.309-13.288a5.3,5.3,0,0,0,4.462-2.278q1.693-2.278,1.693-6.739,0-4.414-1.693-6.715a5.281,5.281,0,0,0-4.462-2.3h-2.418v18.034Zm18.024,14V1.76l2.638-.712V-29.324l-2.638-.712v-.712h12.529v.712l-2.638.712V-5.358l10.331-20.407v-3.559l-2.638-.712v-.712H152.77v.712l-2.638.712V1.048l2.638.712v.712H140.241V1.76l2.638-.712V-22.918L132.547-2.511V1.048l2.638.712v.712Zm52.095-27.288V.337l3.517,1.424v.712h-8.353V1.76L173.432.337V-29.324l-3.077-.712v-.712h5.935a5.849,5.849,0,0,1,3.627,1.02,8.181,8.181,0,0,1,2.308,3.014l9.584,19.79,7.342-19.79a6.465,6.465,0,0,1,2.022-3.061,6.433,6.433,0,0,1,3.913-.973H209.7v.712l-2.638.712V1.048l2.638.712v.712H197.171V1.76l2.638-.712V-24.816L189.478,2.947h-1.319Zm49.457,28a9.684,9.684,0,0,1-5.122-1.4,10.268,10.268,0,0,1-3.649-3.749A10.028,10.028,0,0,1,214.1-7.019h1.1a8.925,8.925,0,0,0,1.165,4.414A9.584,9.584,0,0,0,219.394.74,6.935,6.935,0,0,0,223.329,2a6.528,6.528,0,0,0,5.847-3.488q2.11-3.488,2.286-11.936h-5.715a11.065,11.065,0,0,1-1.143,3.369,9.451,9.451,0,0,1-.835,1.376h-1.319V-19.358h1.319a9.45,9.45,0,0,1,.835,1.376,11.065,11.065,0,0,1,1.143,3.369h5.715a34.5,34.5,0,0,0-.989-9.112,11.1,11.1,0,0,0-2.572-5.031,4.924,4.924,0,0,0-3.473-1.519q-3.737,0-6.2,4.176a16.439,16.439,0,0,0-1.715,4.129h-1.758v-9.017h1.1q.088.047.879.664a8.582,8.582,0,0,1,1.539,1.946,10.141,10.141,0,0,1,1.934-1.519,9.609,9.609,0,0,1,5.056-1.566,13.176,13.176,0,0,1,7.276,2.017,13.139,13.139,0,0,1,4.88,5.932,23.009,23.009,0,0,1,1.736,9.373q0,8.305-3.957,12.814T224.208,3.184Zm14.947-1.9h3.517a11.47,11.47,0,0,0,2.154-2.468,16.2,16.2,0,0,0,2.462-8.21l.879-19.695-3.077-.949v-.712h23.08v.712l-2.638.712V1.286h4.176V10.54H268.39a8.289,8.289,0,0,1-1.89-2.088,10.521,10.521,0,0,1-1.846-5.98H244.211a10.5,10.5,0,0,1-1.89,5.98,8.748,8.748,0,0,1-1.846,2.088h-1.319Zm19.123,0V-29.562h-8.792l-.879,20.169a16.835,16.835,0,0,1-2.33,8.21,9.84,9.84,0,0,1-2.066,2.468Zm24.4,1.9a9.684,9.684,0,0,1-5.122-1.4,10.268,10.268,0,0,1-3.649-3.749,10.028,10.028,0,0,1-1.341-5.054h1.1a8.925,8.925,0,0,0,1.165,4.414A9.584,9.584,0,0,0,277.864.74,6.934,6.934,0,0,0,281.8,2a6.527,6.527,0,0,0,5.847-3.488q2.11-3.488,2.286-11.936h-5.715a11.065,11.065,0,0,1-1.143,3.369,9.448,9.448,0,0,1-.835,1.376h-1.319V-19.358h1.319a9.447,9.447,0,0,1,.835,1.376,11.065,11.065,0,0,1,1.143,3.369h5.715a34.5,34.5,0,0,0-.989-9.112,11.1,11.1,0,0,0-2.572-5.031,4.924,4.924,0,0,0-3.473-1.519q-3.737,0-6.2,4.176a16.439,16.439,0,0,0-1.715,4.129h-1.758v-9.017h1.1q.088.047.879.664a8.582,8.582,0,0,1,1.539,1.946,10.14,10.14,0,0,1,1.934-1.519,9.609,9.609,0,0,1,5.056-1.566,13.176,13.176,0,0,1,7.276,2.017,13.139,13.139,0,0,1,4.88,5.932,23.009,23.009,0,0,1,1.737,9.373q0,8.305-3.957,12.814T282.677,3.184Zm28.355,0a9.684,9.684,0,0,1-5.122-1.4,10.268,10.268,0,0,1-3.649-3.749,10.028,10.028,0,0,1-1.341-5.054h1.1a8.925,8.925,0,0,0,1.165,4.414A9.584,9.584,0,0,0,306.219.74,6.934,6.934,0,0,0,310.154,2,6.527,6.527,0,0,0,316-1.491q2.11-3.488,2.286-11.936h-5.715a11.065,11.065,0,0,1-1.143,3.369,9.448,9.448,0,0,1-.835,1.376h-1.319V-19.358h1.319a9.447,9.447,0,0,1,.835,1.376,11.065,11.065,0,0,1,1.143,3.369h5.715a34.5,34.5,0,0,0-.989-9.112,11.1,11.1,0,0,0-2.572-5.031,4.924,4.924,0,0,0-3.473-1.519q-3.737,0-6.2,4.176a16.439,16.439,0,0,0-1.715,4.129h-1.758v-9.017h1.1q.088.047.879.664a8.582,8.582,0,0,1,1.539,1.946,10.14,10.14,0,0,1,1.934-1.519,9.609,9.609,0,0,1,5.056-1.566,13.176,13.176,0,0,1,7.276,2.017,13.139,13.139,0,0,1,4.88,5.932,23.009,23.009,0,0,1,1.737,9.373q0,8.305-3.957,12.814T311.033,3.184Z" transform="translate(-1.98 31.46)" fill="#111"/>
</svg>
