<svg id="fi-rs-react-wow" xmlns="http://www.w3.org/2000/svg" width="30" height="30" viewBox="0 0 30 30">
  <rect id="Cover" width="30" height="30" fill="none"/>
  <circle id="Ellipse_45" data-name="Ellipse 45" cx="14" cy="14" r="14" transform="translate(1.25 1.25)" fill="#ffd54f"/>
  <path id="Path_458" data-name="Path 458" d="M18.251,6.138a.853.853,0,0,1-.607-.252.575.575,0,0,0-.81,0A.86.86,0,1,1,15.618,4.67a2.293,2.293,0,0,1,3.24,0,.86.86,0,0,1-.607,1.468Z" transform="translate(3.491 1.833)" fill="#4d332b"/>
  <circle id="Ellipse_46" data-name="Ellipse 46" cx="2.292" cy="2.292" r="2.292" transform="translate(18.438 10.417)" fill="#4d332b"/>
  <circle id="Ellipse_47" data-name="Ellipse 47" cx="2.292" cy="2.292" r="2.292" transform="translate(6.979 10.417)" fill="#4d332b"/>
  <path id="Path_459" data-name="Path 459" d="M8.251,6.138a.853.853,0,0,1-.607-.252.575.575,0,0,0-.81,0A.86.86,0,0,1,5.618,4.67a2.293,2.293,0,0,1,3.24,0,.86.86,0,0,1-.607,1.468Z" transform="translate(2.033 1.833)" fill="#4d332b"/>
  <ellipse id="Ellipse_48" data-name="Ellipse 48" cx="3.438" cy="3.953" rx="3.438" ry="3.953" transform="translate(11.563 17.349)" fill="#e53935"/>
</svg>
