<svg id="fi-rs-google" xmlns="http://www.w3.org/2000/svg" width="26" height="26" viewBox="0 0 26 26">
  <rect id="Cover" width="26" height="26" fill="none"/>
  <path id="Path_510" data-name="Path 510" d="M5.282,146.234l-.83,3.1L1.42,149.4a11.937,11.937,0,0,1-.088-11.128h0l2.7.495,1.183,2.683a7.112,7.112,0,0,0,.067,4.788Z" transform="translate(1.083 -130.749)" fill="#fbbb00"/>
  <path id="Path_511" data-name="Path 511" d="M273.074,208.176a11.912,11.912,0,0,1-4.248,11.519h0l-3.4-.173-.481-3A7.1,7.1,0,0,0,268,212.89h-6.372v-4.714h11.446Z" transform="translate(-248.367 -197.402)" fill="#518ef8"/>
  <path id="Path_512" data-name="Path 512" d="M48.465,316.215h0a11.921,11.921,0,0,1-17.957-3.646l3.862-3.161a7.087,7.087,0,0,0,10.213,3.629Z" transform="translate(-28.005 -293.923)" fill="#28b446"/>
  <path id="Path_513" data-name="Path 513" d="M46.815,2.743,42.954,5.9A7.086,7.086,0,0,0,32.507,9.615L28.625,6.436h0A11.919,11.919,0,0,1,46.815,2.743Z" transform="translate(-26.209 1.083)" fill="#f14336"/>
</svg>
