<svg id="fi-rs-react-love" xmlns="http://www.w3.org/2000/svg" width="30" height="30" viewBox="0 0 30 30">
  <rect id="Cover" width="30" height="30" fill="none"/>
  <circle id="Ellipse_43" data-name="Ellipse 43" cx="14" cy="14" r="14" transform="translate(1.25 1.25)" fill="#f53757"/>
  <path id="fi-rs-react-love-2" data-name="fi-rs-react-love" d="M43.843,40.663a31.991,31.991,0,0,1-3.725,3.5c-.515.438-1.1.938-1.708,1.468a.881.881,0,0,1-1.159,0c-.606-.53-1.193-1.029-1.708-1.468a31.989,31.989,0,0,1-3.725-3.5,5.585,5.585,0,0,1-1.487-3.653,4.687,4.687,0,0,1,1.19-3.2,4.035,4.035,0,0,1,3-1.308,3.765,3.765,0,0,1,2.356.816,4.744,4.744,0,0,1,.953,1,4.842,4.842,0,0,1,.953-1A3.765,3.765,0,0,1,41.14,32.5a4.035,4.035,0,0,1,3,1.308,4.687,4.687,0,0,1,1.19,3.2,5.585,5.585,0,0,1-1.487,3.653Z" transform="translate(-22.83 -22.923)" fill="#fff"/>
</svg>
