<svg id="fi-rs-react-cry" xmlns="http://www.w3.org/2000/svg" width="30" height="30" viewBox="0 0 30 30">
  <rect id="Cover" width="30" height="30" fill="none"/>
  <circle id="Ellipse_49" data-name="Ellipse 49" cx="14" cy="14" r="14" transform="translate(1.25 1.25)" fill="#ffd54f"/>
  <circle id="Ellipse_50" data-name="Ellipse 50" cx="2.292" cy="2.292" r="2.292" transform="translate(6.979 10.417)" fill="#4d332b"/>
  <circle id="Ellipse_51" data-name="Ellipse 51" cx="2.292" cy="2.292" r="2.292" transform="translate(18.438 10.417)" fill="#4d332b"/>
  <path id="Path_460" data-name="Path 460" d="M15.661,20.024a.853.853,0,0,1-.607-.252,3.683,3.683,0,0,0-5.086,0,.86.86,0,0,1-1.216-1.216,5.315,5.315,0,0,1,7.517,0,.859.859,0,0,1-.607,1.467Z" transform="translate(2.49 3.729)" fill="#4d332b"/>
  <path id="Path_461" data-name="Path 461" d="M19,12.118a.892.892,0,0,0-1.414,0c-.477.69-1.585,2.4-1.585,3.353a2.292,2.292,0,1,0,4.583,0c0-.956-1.108-2.663-1.585-3.353Z" transform="translate(3.583 4.216)" fill="#398dff"/>
</svg>
