<svg id="fi-rs-react-haha" xmlns="http://www.w3.org/2000/svg" width="30" height="30" viewBox="0 0 30 30">
  <rect id="Cover" width="30" height="30" fill="none"/>
  <circle id="Ellipse_44" data-name="Ellipse 44" cx="14" cy="14" r="14" transform="translate(1.25 1.25)" fill="#ffd54f"/>
  <path id="Path_465" data-name="Path 465" d="M21.261,7.724a.861.861,0,0,0-.737.242L7.966,20.524a.86.86,0,0,0,.207,1.368A10.152,10.152,0,0,0,21.892,8.173a.858.858,0,0,0-.631-.449Z" transform="translate(2.375 2.375)" fill="#4d332b"/>
  <path id="Path_466" data-name="Path 466" d="M-284.227-148.642c-.066-1.625.357-4.508,3.419-7.386a10.632,10.632,0,0,1,7.224-3.009,10.115,10.115,0,0,1-2.977,7.427,10.107,10.107,0,0,1-7.163,2.98Q-283.975-148.63-284.227-148.642Z" transform="translate(299.031 174.08)" fill="#e53935"/>
  <path id="Path_454" data-name="Path 454" d="M6.931,15.686c-.594.858-2.527,3.771-2.525,5.235a3.232,3.232,0,0,0,6.465,0c0-1.466-1.933-4.377-2.525-5.235a.859.859,0,0,0-1.414,0Z" transform="translate(1.893 3.483)" fill="#398dff"/>
  <path id="Path_455" data-name="Path 455" d="M20.922,4.406c-1.464,0-4.377,1.933-5.235,2.525a.859.859,0,0,0,0,1.414c.857.594,3.77,2.527,5.235,2.525a3.232,3.232,0,1,0,0-6.465Z" transform="translate(3.483 1.893)" fill="#398dff"/>
  <path id="Path_456" data-name="Path 456" d="M8.129,15.63a.859.859,0,0,1-1.454-.756l.394-2.234-2.234.394a.859.859,0,1,1-.3-1.691l3.443-.607a.859.859,0,0,1,1,1l-.607,3.443A.858.858,0,0,1,8.129,15.63Z" transform="translate(1.808 2.814)" fill="#4d332b"/>
  <path id="Path_457" data-name="Path 457" d="M15.63,8.129a.848.848,0,0,1-.457.237l-3.444.608a.859.859,0,0,1-1-1l.607-3.443a.859.859,0,1,1,1.691.3l-.394,2.234,2.234-.394a.86.86,0,0,1,.759,1.454Z" transform="translate(2.813 1.808)" fill="#4d332b"/>
</svg>
