<svg xmlns="http://www.w3.org/2000/svg" width="240" height="31.142" viewBox="0 0 240 31.142">
  <path id="Story-news" d="M13.052-5.772A10.258,10.258,0,0,1,4.911-9.115q-2.931-3.343-2.931-9.5a17.076,17.076,0,0,1,1.286-6.95,9.74,9.74,0,0,1,3.615-4.4,9.753,9.753,0,0,1,5.389-1.5A7.113,7.113,0,0,1,16.015-30.3a7.513,7.513,0,0,1,1.433,1.126,6.362,6.362,0,0,1,1.14-1.443q.586-.457.651-.493h.814v6.686h-1.3a10.78,10.78,0,0,0-1.27-3.061A7.505,7.505,0,0,0,15.543-29.7a4.264,4.264,0,0,0-2.654-.88q-2.247,0-3.729,2.815T7.679-18.616q0,6.44,1.612,9.2A4.923,4.923,0,0,0,13.7-6.652a5.133,5.133,0,0,0,2.915-.933,7.1,7.1,0,0,0,2.247-2.481,6.623,6.623,0,0,0,.863-3.273h.814a7.442,7.442,0,0,1-.993,3.748,7.61,7.61,0,0,1-2.7,2.78A7.168,7.168,0,0,1,13.052-5.772ZM27.869-6.828l1.954-.528v-22.7H26.078A8.484,8.484,0,0,1,25-25.935,5.236,5.236,0,0,1,23.961-24.6h-.977v-6.334h19.05V-24.6h-.977a4.884,4.884,0,0,1-1.075-1.337,8.425,8.425,0,0,1-1.042-4.117H35.2v22.7l1.954.528V-6.3H27.869ZM54.734-5.772a10.319,10.319,0,0,1-5.585-1.5,9.7,9.7,0,0,1-3.7-4.381,16.861,16.861,0,0,1-1.3-6.967,16.861,16.861,0,0,1,1.3-6.967,9.7,9.7,0,0,1,3.7-4.381,10.319,10.319,0,0,1,5.585-1.5,10.319,10.319,0,0,1,5.585,1.5,9.7,9.7,0,0,1,3.7,4.381,16.861,16.861,0,0,1,1.3,6.967,16.861,16.861,0,0,1-1.3,6.967,9.7,9.7,0,0,1-3.7,4.381A10.319,10.319,0,0,1,54.734-5.772Zm0-.7A3.215,3.215,0,0,0,57.1-7.637,9.111,9.111,0,0,0,58.9-11.508a28.675,28.675,0,0,0,.716-7.108,28.675,28.675,0,0,0-.716-7.108A9.111,9.111,0,0,0,57.1-29.595a3.215,3.215,0,0,0-2.361-1.161,3.215,3.215,0,0,0-2.361,1.161,9.111,9.111,0,0,0-1.807,3.871,28.675,28.675,0,0,0-.716,7.108,28.675,28.675,0,0,0,.716,7.108,9.111,9.111,0,0,0,1.807,3.871A3.215,3.215,0,0,0,54.734-6.476ZM68.9-6.828l1.954-.528V-29.876L68.9-30.4v-.528h9.118q5.406,0,7.75,1.918a6.871,6.871,0,0,1,2.345,5.648,6.871,6.871,0,0,1-2.345,5.648Q83.424-15.8,78.018-15.8H76.227v8.445l1.954.528V-6.3H68.9Zm9.118-9.853a3.923,3.923,0,0,0,3.305-1.689,8.326,8.326,0,0,0,1.254-5,8.339,8.339,0,0,0-1.254-4.979,3.91,3.91,0,0,0-3.305-1.707H76.227v13.372ZM91.369-6.3v-.528l1.954-.528V-29.876L91.369-30.4v-.528h9.281v.528l-1.954.528v17.771l7.653-15.131v-2.639L104.4-30.4v-.528h9.281v.528l-1.954.528V-7.355l1.954.528V-6.3H104.4v-.528l1.954-.528V-25.126L98.7-9.995v2.639l1.954.528V-6.3Zm38.589-20.234v18.65l2.605,1.056V-6.3h-6.187v-.528l2.605-1.056V-29.876L126.7-30.4v-.528h4.4a4.329,4.329,0,0,1,2.687.757,6.066,6.066,0,0,1,1.71,2.235l7.1,14.674,5.438-14.674a4.794,4.794,0,0,1,1.5-2.27,4.762,4.762,0,0,1,2.9-.721h3.419v.528l-1.954.528V-7.355l1.954.528V-6.3h-9.281v-.528l1.954-.528V-26.534L140.867-5.948h-.977ZM166.593-5.772A7.168,7.168,0,0,1,162.8-6.81a7.61,7.61,0,0,1-2.7-2.78,7.442,7.442,0,0,1-.993-3.748h.814a6.623,6.623,0,0,0,.863,3.273,7.1,7.1,0,0,0,2.247,2.481,5.133,5.133,0,0,0,2.915.933,4.834,4.834,0,0,0,4.331-2.586q1.563-2.586,1.693-8.85h-4.233a8.21,8.21,0,0,1-.847,2.5,7.009,7.009,0,0,1-.619,1.02h-.977v-7.918h.977a7.009,7.009,0,0,1,.619,1.02,8.21,8.21,0,0,1,.847,2.5h4.233a25.608,25.608,0,0,0-.733-6.756,8.237,8.237,0,0,0-1.905-3.73,3.646,3.646,0,0,0-2.573-1.126q-2.768,0-4.592,3.1a12.2,12.2,0,0,0-1.27,3.061h-1.3v-6.686h.814q.065.035.651.493a6.362,6.362,0,0,1,1.14,1.443A7.514,7.514,0,0,1,163.63-30.3a7.113,7.113,0,0,1,3.745-1.161,9.753,9.753,0,0,1,5.389,1.5,9.74,9.74,0,0,1,3.615,4.4,17.076,17.076,0,0,1,1.286,6.95q0,6.158-2.931,9.5A10.258,10.258,0,0,1,166.593-5.772Zm11.072-1.408h2.605a8.5,8.5,0,0,0,1.6-1.83A12.023,12.023,0,0,0,183.69-15.1l.651-14.6-2.279-.7v-.528h17.1v.528l-1.954.528v22.7H200.3V-.318h-.977a6.144,6.144,0,0,1-1.4-1.548A7.807,7.807,0,0,1,196.553-6.3H181.41a7.788,7.788,0,0,1-1.4,4.434,6.484,6.484,0,0,1-1.368,1.548h-.977Zm14.166,0V-30.052h-6.513L184.667-15.1a12.492,12.492,0,0,1-1.726,6.088,7.294,7.294,0,0,1-1.531,1.83ZM209.9-5.772A7.168,7.168,0,0,1,206.11-6.81a7.61,7.61,0,0,1-2.7-2.78,7.442,7.442,0,0,1-.993-3.748h.814a6.623,6.623,0,0,0,.863,3.273,7.1,7.1,0,0,0,2.247,2.481,5.133,5.133,0,0,0,2.915.933,4.834,4.834,0,0,0,4.331-2.586q1.563-2.586,1.693-8.85h-4.233a8.21,8.21,0,0,1-.847,2.5,7,7,0,0,1-.619,1.02H208.6v-7.918h.977a7,7,0,0,1,.619,1.02,8.21,8.21,0,0,1,.847,2.5h4.233a25.607,25.607,0,0,0-.733-6.756,8.237,8.237,0,0,0-1.905-3.73,3.646,3.646,0,0,0-2.573-1.126q-2.768,0-4.592,3.1a12.2,12.2,0,0,0-1.27,3.061h-1.3v-6.686h.814q.065.035.651.493a6.362,6.362,0,0,1,1.14,1.443,7.514,7.514,0,0,1,1.433-1.126,7.113,7.113,0,0,1,3.745-1.161,9.753,9.753,0,0,1,5.389,1.5,9.74,9.74,0,0,1,3.615,4.4,17.076,17.076,0,0,1,1.286,6.95q0,6.158-2.931,9.5A10.258,10.258,0,0,1,209.9-5.772Zm21,0a7.168,7.168,0,0,1-3.794-1.038,7.611,7.611,0,0,1-2.7-2.78,7.442,7.442,0,0,1-.993-3.748h.814a6.623,6.623,0,0,0,.863,3.273,7.1,7.1,0,0,0,2.247,2.481,5.133,5.133,0,0,0,2.915.933,4.834,4.834,0,0,0,4.331-2.586q1.563-2.586,1.693-8.85h-4.233a8.21,8.21,0,0,1-.847,2.5,7.008,7.008,0,0,1-.619,1.02h-.977v-7.918h.977a7.007,7.007,0,0,1,.619,1.02,8.21,8.21,0,0,1,.847,2.5h4.233a25.607,25.607,0,0,0-.733-6.756,8.237,8.237,0,0,0-1.905-3.73,3.646,3.646,0,0,0-2.573-1.126q-2.768,0-4.592,3.1a12.2,12.2,0,0,0-1.27,3.061h-1.3v-6.686h.814q.065.035.651.493a6.364,6.364,0,0,1,1.14,1.443,7.512,7.512,0,0,1,1.433-1.126,7.113,7.113,0,0,1,3.745-1.161,9.753,9.753,0,0,1,5.389,1.5,9.74,9.74,0,0,1,3.615,4.4,17.076,17.076,0,0,1,1.286,6.95q0,6.158-2.931,9.5A10.258,10.258,0,0,1,230.908-5.772Z" transform="translate(-1.98 31.46)" fill="#fff"/>
</svg>
