<?xml version="1.0" standalone="no"?>
<!DOCTYPE svg PUBLIC "-//W3C//DTD SVG 1.1//EN" "http://www.w3.org/Graphics/SVG/1.1/DTD/svg11.dtd" >
<svg xmlns="http://www.w3.org/2000/svg">
<metadata>Generated by IcoMoon</metadata>
<defs>
<font id="caakmoon" horiz-adv-x="1024">
<font-face units-per-em="1024" ascent="960" descent="-64" />
<missing-glyph horiz-adv-x="1024" />
<glyph unicode="&#x20;" horiz-adv-x="512" d="" />
<glyph unicode="&#xe900;" glyph-name="fi-rs-ads" d="M957.227 423.893l-469.333 469.333c-14.934 14.929-35.562 24.162-58.347 24.162-45.58 0-82.53-36.95-82.53-82.53 0-22.795 9.242-43.432 24.183-58.368v0c9.954-9.94 16.112-23.68 16.112-38.858 0-7.529-1.515-14.704-4.258-21.237l0.135 0.362-193.579-470.613-146.944-48.981 218.496-218.539 48.981 146.944 64.64 26.581 41.856-101.717 304.171 125.141-41.856 101.717 101.717 41.856c6.174 2.612 13.353 4.131 20.886 4.131 15.176 0 28.913-6.161 38.846-16.119l0.001-0.001c14.884-14.653 35.323-23.7 57.876-23.7 45.573 0 82.517 36.944 82.517 82.517 0 22.552-9.047 42.992-23.71 57.887l0.010-0.011zM144.469 173.099l58.325 19.456 53.76-53.76-19.456-58.325zM649.003 205.525l-202.411-83.285-20.949 50.859 202.411 83.285zM759.936 370.048l-465.536-191.403-51.755 51.712 191.403 465.067c1.537 3.587 3.082 8.043 4.34 12.619l0.183 0.779 334.549-334.549c-5.338-1.332-9.79-2.779-14.11-4.487l0.756 0.263zM918.485 346.112c-4.98-4.978-11.858-8.057-19.456-8.057s-14.476 3.079-19.456 8.057l-469.333 469.333c-4.759 4.94-7.691 11.669-7.691 19.083 0 15.199 12.321 27.52 27.52 27.52 7.414 0 14.143-2.932 19.091-7.699l-0.009 0.008 469.333-469.333c4.927-4.971 7.972-11.815 7.972-19.371 0-7.64-3.113-14.553-8.141-19.54l-0.002-0.002z" />
<glyph unicode="&#xe901;" glyph-name="fi-rs-bolt" d="M767.744 616.277h-206.933l93.141 301.056h-284.971l-112.725-539.392h138.027l-35.157-399.275z" />
<glyph unicode="&#xe902;" glyph-name="fi-rs-bookmark" d="M806.741-64.085c-10.416 0.041-19.944 3.808-27.328 10.037l0.064-0.053-285.611 237.824-285.867-237.824c-7.38-6.178-16.964-9.943-27.426-9.984h-0.009c-0.042 0-0.091 0-0.14 0-6.403 0-12.461 1.48-17.849 4.117l0.24-0.106c-14.706 6.845-24.753 21.429-24.917 38.379v730.176c0.121 81.177 65.895 146.951 147.060 147.072h208.695c23.635 0 42.795-19.16 42.795-42.795s-19.16-42.795-42.795-42.795v0h-208.683c-33.954-0.048-61.471-27.536-61.568-61.473v-639.113l242.731 202.581c7.32 6.081 16.816 9.772 27.173 9.772 0.122 0 0.244-0.001 0.365-0.002h-0.019c0.13 0.001 0.284 0.002 0.437 0.002 10.218 0 19.573-3.695 26.802-9.823l242.927-202.531v430.421c0 23.635 19.16 42.795 42.795 42.795s42.795-19.16 42.795-42.795v0-521.515c-0.169-23.435-19.206-42.368-42.666-42.368 0 0-0.001 0-0.001 0v0zM806.741 665.899c-23.564 0-42.667 19.103-42.667 42.667v0 61.483h-61.568c-23.635 0-42.795 19.16-42.795 42.795s19.16 42.795 42.795 42.795v0h61.568v61.397c0 23.635 19.16 42.795 42.795 42.795s42.795-19.16 42.795-42.795v0-61.397h61.269c23.635 0 42.795-19.16 42.795-42.795s-19.16-42.795-42.795-42.795v0h-61.269v-61.483c-0.193-23.558-19.336-42.581-42.921-42.581 0 0-0.001 0-0.001 0v0z" />
<glyph unicode="&#xe903;" glyph-name="fi-rs-close" d="M861.568 55.467c-11.899 0.026-22.65 4.919-30.372 12.793l-310.706 310.706-310.699-310.699c-7.729-7.881-18.48-12.774-30.374-12.8h-0.005c-11.883 0.039-22.617 4.929-30.329 12.793l-0.007 0.007c-7.881 7.729-12.774 18.48-12.8 30.374v0.005c0.039 11.883 4.929 22.617 12.793 30.329l310.706 310.706-310.699 310.699c-7.881 7.729-12.774 18.48-12.8 30.374v0.005c0.026 11.899 4.919 22.65 12.793 30.372l0.007 0.007c7.719 7.871 18.453 12.761 30.329 12.8h0.007c11.899-0.026 22.65-4.919 30.372-12.793l310.706-310.706 310.699 310.699c7.729 7.881 18.48 12.774 30.374 12.8h0.005c11.899-0.026 22.65-4.919 30.372-12.793l0.007-0.007c7.871-7.719 12.761-18.453 12.8-30.329v-0.007c-0.026-11.899-4.919-22.65-12.793-30.372l-310.706-310.706 310.699-310.699c7.871-7.719 12.761-18.453 12.8-30.329v-0.007c-0.026-11.899-4.919-22.65-12.793-30.372l-0.007-0.007c-7.723-7.896-18.474-12.804-30.371-12.843h-0.007z" />
<glyph unicode="&#xe904;" glyph-name="fi-rs-down-chevron" d="M838.059 668.971l-326.059-326.059-326.059 326.059-100.608-100.608 426.667-426.667 426.667 426.667z" />
<glyph unicode="&#xe905;" glyph-name="fi-rs-edit" d="M153.088-21.333c-61.267 0-110.933 49.667-110.933 110.933v0 665.301c0 61.267 49.667 110.933 110.933 110.933v0h369.621c20.412-0.024 36.949-16.577 36.949-36.992 0 0 0 0 0 0v0c-0.024-20.397-16.553-36.925-36.947-36.949h-369.624c-20.407 0-36.949-16.543-36.949-36.949v-665.301c0.024-20.397 16.553-36.925 36.947-36.949h665.304c20.415 0 36.968 16.538 36.992 36.947v369.581c0 20.407 16.543 36.949 36.949 36.949v0c20.407 0 36.949-16.543 36.949-36.949v0-369.621c0-61.267-49.667-110.933-110.933-110.933v0zM322.219 221.867c-20.407 0-36.949 16.543-36.949 36.949 0 0.015 0 0.030 0 0.045v-0.002 156.8c0.001 10.193 4.126 19.423 10.796 26.113l444.372 444.33c20.331 19.453 47.956 31.427 78.379 31.427s58.048-11.974 78.421-31.467l-0.042 0.040 52.309-52.267c20.050-20.071 32.45-47.787 32.45-78.4s-12.4-58.329-32.451-78.401l-444.33-444.287c-6.69-6.706-15.935-10.861-26.151-10.88h-0.004zM359.168 400.213v-104.405h104.405l328.96 328.96-104.405 104.405zM844.928 677.035l52.267 52.096c6.696 6.701 10.837 15.956 10.837 26.178 0 0.007 0 0.014 0 0.021v-0.001c-0.001 10.214-4.143 19.461-10.837 26.155v0l-52.267 52.352c-6.77 6.489-15.974 10.484-26.112 10.484s-19.342-3.995-26.125-10.497l-52.296-52.254z" />
<glyph unicode="&#xe906;" glyph-name="fi-rs-editor" d="M75.008-21.419c-0.004 0-0.008 0-0.013 0-9.498 0-18.038 4.105-23.941 10.639l-0.025 0.028c-5.107 5.435-8.244 12.771-8.244 20.841 0 1.166 0.065 2.316 0.193 3.447l-0.013-0.139 21.333 234.667c0.797 7.767 4.216 14.614 9.345 19.755l-0.001-0.001 484.565 484.011 134.315 134.912c19.008 18.964 45.244 30.69 74.219 30.69s55.21-11.726 74.221-30.692l109.993-109.95c18.892-19.041 30.567-45.266 30.567-74.219s-11.675-55.178-30.574-74.225l-618.916-618.916c-5.161-5.103-12.055-8.464-19.721-9.122l-0.119-0.008-235.349-21.333c0-0.384-0.981-0.384-1.835-0.384zM580.523 683.733l-453.333-453.291-16.341-179.2-0.512-5.205 184.32 16.896 453.248 453.376-164.48 164.267zM766.677 852.992c-0.074 0-0.161 0.001-0.248 0.001-11.186 0-21.304-4.569-28.59-11.943l-109.017-108.932-2.816-3.115 167.424-167.424 112.085 112.299c7.399 7.175 11.99 17.208 11.99 28.313 0 0.096 0 0.192-0.001 0.288v-0.015c0 0.003 0 0.007 0 0.011 0 11.268-4.583 21.465-11.988 28.83l-0.002 0.002-109.995 109.696c-7.332 7.506-17.535 12.181-28.831 12.245h-0.012z" />
<glyph unicode="&#xe907;" glyph-name="fi-rs-exit" d="M736.853-21.333h-546.517c-57.954 0.073-104.911 47.046-104.96 104.998v728.709c0.073 57.938 47.021 104.887 104.953 104.96h546.524c57.938-0.073 104.887-47.021 104.96-104.953v-109.319c0-17.744-14.384-32.128-32.128-32.128s-32.128 14.384-32.128 32.128v0 109.312c-0.024 22.494-18.253 40.722-40.744 40.747h-546.477c-22.494-0.024-40.722-18.253-40.747-40.744v-728.706c0.024-22.494 18.253-40.722 40.744-40.747h546.52c22.494 0.024 40.722 18.253 40.747 40.744v109.314c0 17.744 14.384 32.128 32.128 32.128s32.128-14.384 32.128-32.128v0-109.312c-0.049-57.972-47.031-104.954-104.998-105.003h-0.005zM773.291 270.123c-17.727 0.022-32.090 14.398-32.090 32.128 0 8.862 3.588 16.887 9.391 22.699v0l90.837 90.88h-286.763c-17.756 0-32.149 14.394-32.149 32.149s14.394 32.149 32.149 32.149v0h286.763l-90.88 90.88c-5.824 5.818-9.426 13.859-9.426 22.741 0 17.754 14.392 32.146 32.146 32.146 8.872 0 16.904-3.594 22.72-9.405v0l145.536-145.621c0.384-0.341 0.811-0.768 1.195-1.237l1.664-2.005c4.166-5.364 6.678-12.193 6.678-19.609 0-8.871-3.595-16.903-9.409-22.717l-145.792-145.749c-5.756-5.822-13.742-9.427-22.57-9.429v0z" />
<glyph unicode="&#xe908;" glyph-name="fi-rs-fb" d="M512 917.333c0.204 0 0.446 0.001 0.688 0.001 87.125 0 168.655-23.958 238.36-65.645l-2.12 1.175c140.116-84.080 232.434-235.192 232.434-407.865 0-117.971-43.090-225.877-114.391-308.838l0.528 0.628c-67.018-78.571-158.054-134.875-261.667-157.583l-3.165-0.582v337.408h92.032l20.821 132.565h-139.392v86.869c-0.045 0.974-0.071 2.116-0.071 3.265 0 17.665 6.068 33.912 16.234 46.771l-0.121-0.158c13.382 13.96 32.182 22.635 53.008 22.635 2.067 0 4.113-0.085 6.137-0.253l-0.265 0.018h84.181v116.139q-1.792 0.597-34.389 4.608c-22.047 2.732-47.786 4.4-73.873 4.606l-0.282 0.002c-2.694 0.14-5.848 0.22-9.021 0.22-47.812 0-91.394-18.112-124.258-47.849l0.159 0.142c-31.133-32.81-50.281-77.26-50.281-126.181 0-3.537 0.1-7.050 0.298-10.537l-0.022 0.483v-100.736h-106.069v-132.565h106.069v-337.365c-115.566 17.304-215.298 74.803-286.503 157.552l-0.515 0.613c-70.916 82.315-114.104 190.273-114.104 308.317 0 172.677 92.413 323.771 230.481 406.52l2.151 1.195c67.585 40.512 149.114 64.47 236.24 64.47 0.242 0 0.484 0 0.726-0.001h-0.038z" />
<glyph unicode="&#xe909;" glyph-name="fi-rs-flag" d="M153.771 55.936v728.064c0.232 13.724 8.53 25.455 20.347 30.677l0.218 0.086c3.925 1.835 8.523 2.906 13.37 2.906 0.189 0 0.379-0.002 0.567-0.005h-0.028c0.020 0 0.044 0 0.068 0 8.421 0 16.13-3.050 22.083-8.105l-0.049 0.041c29.757-28.055 69.857-45.425 114.012-45.823l0.079-0.001c64.547 5.73 123.605 24.554 176.061 53.796l-2.237-1.145 0.256 0.256 0.512 0.256c58.065 31.606 126.331 52.371 198.883 57.716l1.65 0.098c0.188 0.001 0.411 0.001 0.634 0.001 61.378 0 117.144-24.032 158.4-63.199l-0.1 0.094c6.914-6.561 11.356-15.67 11.816-25.816l0.003-0.082v-413.184c-0.146-13.774-8.429-25.578-20.263-30.847l-0.217-0.086c-4.118-1.693-8.897-2.68-13.906-2.688h-0.003c-8.377 0.035-16.056 2.991-22.080 7.901l0.064-0.050c-29.758 28.254-69.978 45.739-114.279 46.080h-0.067c-64.51-5.82-123.501-24.728-175.874-54.049l2.221 1.142-7.851-3.072c-56.155-28.433-121.595-47.978-190.77-54.814l-2.297-0.184c-0.795-0.010-1.733-0.016-2.672-0.016-35.209 0-68.493 8.244-98.026 22.908l1.285-0.577-3.243 1.493v-249.6c-0.619-18.721-15.47-33.78-34.047-34.727l-0.086-0.004c-19.022 0.024-34.432 15.45-34.432 34.475 0 0.030 0 0.060 0 0.090v-0.005zM222.251 384.469l0.768-0.512c27.583-22.024 62.93-35.381 101.392-35.499h0.026c64.577 5.842 123.624 24.78 176.047 54.136l-2.223-1.144c58.27 31.753 126.792 52.587 199.623 57.888l1.635 0.096c0.681 0.008 1.486 0.012 2.291 0.012 36.040 0 70.042-8.726 100.009-24.18l-1.223 0.573 3.243-1.493v334.251l-0.981 0.512c-27.925 22.941-63.985 36.906-103.301 37.077h-0.038c-64.609-6.085-123.645-24.994-176.202-54.16l2.293 1.168c-58.251-31.707-126.735-52.533-199.52-57.886l-1.654-0.098c-0.778-0.010-1.696-0.016-2.616-0.016-35.055 0-68.184 8.245-97.553 22.903l1.267-0.572-3.243 1.749z" />
<glyph unicode="&#xe90a;" glyph-name="fi-rs-hamburger-menu" d="M942.208 721.792h-860.416c-21.045 0.717-37.833 17.95-37.833 39.104s16.788 38.387 37.768 39.102l0.065 0.002h860.416c0.385 0.014 0.838 0.021 1.292 0.021 21.608 0 39.125-17.517 39.125-39.125s-17.517-39.125-39.125-39.125c-0.454 0-0.907 0.008-1.357 0.023l0.065-0.002zM981.333 448c0 21.608-17.517 39.125-39.125 39.125v0h-860.416c-0.385 0.014-0.838 0.021-1.292 0.021-21.608 0-39.125-17.517-39.125-39.125s17.517-39.125 39.125-39.125c0.454 0 0.907 0.008 1.357 0.023l-0.065-0.002h860.416c21.593 0 39.101 17.493 39.125 39.080v0.002zM981.333 135.125c0 21.608-17.517 39.125-39.125 39.125v0h-860.416c-0.385 0.014-0.838 0.021-1.292 0.021-21.608 0-39.125-17.517-39.125-39.125s17.517-39.125 39.125-39.125c0.454 0 0.907 0.008 1.357 0.023l-0.065-0.002h860.416c21.593 0 39.101 17.493 39.125 39.080v0.002z" />
<glyph unicode="&#xe90b;" glyph-name="fi-rs-heart" d="M512 32.469v0c-107.932 35.177-200.504 91.687-276.803 165.006l0.238-0.227c-115.167 101.194-188.657 247.427-192.754 410.895l-0.014 0.71c0.032 140.606 114.024 254.578 254.635 254.578 83.009 0 156.741-39.72 203.227-101.191l0.464-0.64 11.051-14.635 10.923 14.677c47.097 61.978 120.783 101.642 203.743 101.845h0.033c0.013 0 0.028 0 0.043 0 140.584 0 254.549-113.966 254.549-254.549 0-0.030 0-0.060 0-0.090v0.005c-4.124-164.162-77.612-310.378-192.134-411.017l-0.634-0.546c-76.074-73.081-168.64-129.6-271.515-163.386l-5.050-1.436zM297.301 783.403c-96.613 0-174.933-78.32-174.933-174.933v0c4.754-122.192 52.611-232.366 128.686-316.553l-0.387 0.435c66.687-81.102 153.745-143.137 253.417-178.548l4.034-1.25 3.925-1.109 3.84 1.109c103.649 36.794 190.634 98.936 256.432 179.127l0.806 1.012c75.7 83.745 123.56 193.923 128.27 315.174l0.029 0.943c0 96.613-78.32 174.933-174.933 174.933v0c-70.528 0-142.763-42.667-214.699-126.507-71.765 83.797-143.957 126.336-214.485 126.336z" />
<glyph unicode="&#xe90c;" glyph-name="fi-rs-ig" d="M318.507-18.773c-41.118 0.841-80.138 8.765-116.234 22.596l2.357-0.793c-63.268 24.972-112.415 74.119-136.818 135.759l-0.568 1.628c-13.069 33.737-21.010 72.757-21.84 113.524l-0.006 0.354c-2.176 50.091-2.731 66.048-2.731 193.707s0.555 143.403 2.944 193.664c0.897 41.012 8.832 79.906 22.64 115.892l-0.794-2.356c12.449 32.579 30.85 60.358 54.075 83.259l0.027 0.026c22.872 23.366 50.648 41.832 81.674 53.743l1.568 0.529c33.739 13.054 72.762 20.98 113.528 21.797l0.349 0.006c50.091 2.219 66.048 2.773 193.323 2.773s143.403-0.555 193.664-2.944c41.118-0.839 80.138-8.764 116.234-22.596l-2.356 0.793c63.265-24.977 112.41-74.122 136.818-135.759l0.568-1.628c13.056-33.74 20.982-72.762 21.797-113.53l0.005-0.348c2.603-50.091 2.603-66.048 2.603-193.323s-0.555-143.403-2.731-193.493c-0.844-41.119-8.768-80.139-22.596-116.236l0.794 2.358c-24.935-63.291-74.096-112.452-135.76-136.82l-1.627-0.567c-33.739-13.057-72.762-20.984-113.53-21.797l-0.347-0.005c-50.091-2.389-66.048-2.773-193.536-2.773s-143.403 0.384-193.493 2.56zM322.773 829.269c-31.374-0.348-61.27-6.233-88.901-16.72l1.776 0.592c-21.141-7.934-39.152-19.868-53.901-34.999l-0.030-0.031c-15.311-14.712-27.318-32.743-34.877-52.946l-0.323-0.985c-9.92-25.855-15.808-55.755-16.127-86.989l-0.001-0.136c-2.219-49.323-2.731-64.384-2.731-189.653s0.555-140.117 2.731-189.653c0.394-31.376 6.323-61.251 16.85-88.855l-0.594 1.772c7.941-21.138 19.874-39.149 34.999-53.902l0.030-0.029c14.755-15.197 32.775-27.138 52.935-34.702l0.996-0.328c25.855-9.92 55.755-15.807 86.989-16.127l0.136-0.001c49.323-2.219 64.384-2.731 189.653-2.731s140.117 0.555 189.653 2.731c31.374 0.343 61.271 6.229 88.9 16.719l-1.774-0.591c41.064 16.171 72.959 48.067 88.763 88.076l0.367 1.055c9.917 25.855 15.804 55.754 16.127 86.987l0.001 0.138c2.219 49.536 2.731 64 2.731 189.44s-0.555 140.117-2.731 189.653c-0.347 31.374-6.232 61.271-16.72 88.901l0.592-1.776c-7.942 21.138-19.875 39.148-34.999 53.901l-0.030 0.029c-14.751 15.215-32.771 27.171-52.935 34.744l-0.995 0.328c-25.855 9.917-55.754 15.804-86.987 16.127l-0.138 0.001c-49.408 2.176-64.213 2.688-189.653 2.688s-140.117-0.512-189.653-2.688zM271.019 448c0.097 133.135 108.047 241.024 241.195 241.024 133.208 0 241.195-107.987 241.195-241.195s-107.987-241.195-241.195-241.195c-0.075 0-0.15 0-0.225 0h0.012c-133.122 0.146-240.981 108.096-240.981 241.237 0 0.045 0 0.090 0 0.135v-0.007zM355.755 448c0-0.051 0-0.111 0-0.171 0-86.41 70.049-156.459 156.459-156.459s156.459 70.049 156.459 156.459c0 86.41-70.049 156.459-156.459 156.459-0.075 0-0.15 0-0.225 0h0.012c-86.258-0.121-156.148-70.027-156.245-156.279v-0.009zM706.603 698.709c0 31.105 25.215 56.32 56.32 56.32s56.32-25.215 56.32-56.32c0-31.105-25.215-56.32-56.32-56.32v0c0 0 0 0 0 0-31.045 0-56.223 25.118-56.32 56.14v0.009z" />
<glyph unicode="&#xe90d;" glyph-name="fi-rs-jor" d="M471.253 31.445c-45.567 24.645-99.739 39.154-157.294 39.211h-0.018c-7.808 0-15.744-0.256-23.552-0.853-31.133-2.473-59.976-8.948-87.115-18.944l2.251 0.726c-9.010-3.375-19.423-5.329-30.292-5.333h-0.002c-0.005 0-0.011 0-0.018 0-19.213 0-36.984 6.174-51.438 16.645l0.255-0.176c-23.36 16.748-38.4 43.815-38.4 74.394 0 0.051 0 0.101 0 0.152v-0.008 612.523c0 0.109-0.001 0.238-0.001 0.366 0 35.286 20.11 65.875 49.494 80.931l0.512 0.238c43.5 22.823 94.443 37.955 148.454 42.156l1.349 0.084c9.813 0.725 19.755 1.109 29.568 1.109 69.001-0.077 133.903-17.555 190.575-48.282l-2.117 1.050c2.575-1.305 5.614-2.069 8.832-2.069s6.257 0.764 8.946 2.121l-0.114-0.052c54.394 29.652 119.118 47.129 187.915 47.232h0.032c9.856 0 19.883-0.384 29.867-1.152 55.017-4.294 105.647-19.266 151.095-42.846l-2.188 1.033 0.853-0.427c29.868-15.257 49.963-45.803 49.963-81.043 0-0.098 0-0.197 0-0.295v0.015-612.779c0-0.017 0-0.037 0-0.058 0-30.593-15.039-57.673-38.127-74.252l-0.273-0.187c-14.214-10.267-31.988-16.422-51.199-16.427h-0.001c-10.888 0.003-21.315 1.974-30.946 5.576l0.61-0.2c-24.919 9.241-53.803 15.714-83.829 18.143l-1.163 0.076c-7.509 0.512-15.189 0.768-22.827 0.768-57.76-0.058-112.12-14.564-159.676-40.098l1.809 0.887c-11.855-6.343-25.933-10.069-40.881-10.069-0.058 0-0.115 0-0.173 0h0.009c-14.907 0.034-28.934 3.772-41.219 10.343l0.472-0.231zM477.696 103.979v659.925c-2.091 0.768-4.267 1.579-6.144 2.517h-0.341c-45.564 24.658-99.734 39.18-157.289 39.253h-0.023c-7.808 0-15.701-0.256-23.509-0.853-45.738-3.644-87.801-16.167-125.54-35.844l1.807 0.858c-7.486-3.848-12.523-11.509-12.544-20.349v-612.526c-0.001-0.070-0.001-0.152-0.001-0.235 0-7.488 3.696-14.113 9.362-18.151l0.068-0.046c3.293-2.399 7.42-3.839 11.882-3.839 2.504 0 4.902 0.453 7.117 1.282l-0.14-0.046c30.168 11.218 65.129 19.057 101.481 21.969l1.388 0.089c10.112 0.768 20.181 1.152 29.867 1.152 58.98-0.221 114.895-13.1 165.249-36.057l-2.518 1.028zM552.875 766.592h-0.341c-2.005-0.939-4.267-1.792-6.187-2.56v-659.627c48.444 21.967 105.036 34.808 164.617 34.901h0.034c9.216 0 18.56-0.299 27.776-0.939 37.791-3.065 72.775-10.915 105.723-22.989l-2.768 0.887c2.073-0.784 4.47-1.237 6.973-1.237 0.023 0 0.047 0 0.070 0h-0.004c4.455 0.005 8.574 1.444 11.919 3.88l-0.058-0.040c5.708 4.042 9.388 10.619 9.388 18.057 0 0.087-0.001 0.174-0.002 0.261v-0.013 612.864c-0.035 8.769-5.056 16.357-12.373 20.079l-0.128 0.059c-35.931 18.832-77.992 31.369-122.58 34.955l-1.153 0.075c-7.851 0.555-15.915 0.853-23.851 0.853-57.501-0.045-111.592-14.605-158.819-40.213l1.763 0.874z" />
<glyph unicode="&#xe90e;" glyph-name="fi-rs-megaphone" d="M534.643 70.565c-13.469-7.776-30.691-3.161-38.467 10.307l-89.941 155.783 122.055 13.959 65.493-113.438c0.006-0.011 0.014-0.024 0.021-0.037 7.764-13.448 3.157-30.645-10.292-38.409-0.013-0.008-0.026-0.015-0.039-0.022l0.002 0.001zM905.211 418.076l-125.804-7.551c-10.422-0.555-20.595 4.542-26.077 14.037-7.78 13.475-3.163 30.706 10.312 38.485 3.98 2.298 8.288 3.514 12.584 3.74l-0.175-0.016 125.804 7.551c10.422 0.555 20.595-4.542 26.077-14.037 7.78-13.475 3.163-30.706-10.312-38.485-3.98-2.298-8.288-3.514-12.584-3.74l0.175 0.016zM694.064 326.322l-349.118-39.918-97.586-56.341c-26.958-15.564-61.429-6.328-76.993 20.63v0l-56.341 97.586c-15.564 26.958-6.328 61.429 20.63 76.993l97.586 56.341 209.129 282.386c0.843 1.113 1.982 2.134 3.341 2.919 5.49 3.169 12.509 1.289 15.678-4.201 0.031-0.053 0.061-0.107 0.091-0.16l-0.005 0.008 241.899-418.981c0.020-0.033 0.042-0.072 0.065-0.111 3.171-5.492 1.324-12.503-4.116-15.727l-0.006-0.003c-1.376-0.792-2.849-1.262-4.331-1.434l0.078 0.012zM717.543 599.171c-0.277-0.175-0.605-0.374-0.939-0.567-13.489-7.788-30.738-3.166-38.526 10.323s-3.166 30.738 10.323 38.526c0.334 0.193 0.67 0.378 1.009 0.556l-0.048-0.026 97.586 56.341c0.277 0.175 0.605 0.374 0.939 0.567 13.489 7.788 30.738 3.166 38.526-10.323s3.166-30.738-10.323-38.526c-0.334-0.193-0.67-0.378-1.009-0.556l0.048 0.026zM564.907 756.791c-3.466 2.242-6.591 5.45-8.89 9.432-5.482 9.494-4.806 20.854 0.788 29.455l0.102 0.144 69.442 105.174c2.242 3.463 5.449 6.586 9.43 8.884 13.475 7.78 30.706 3.163 38.485-10.312 5.482-9.495 4.809-20.854-0.781-29.458l-0.102-0.144-69.442-105.174c-2.242-3.466-5.45-6.591-9.432-8.89-9.494-5.482-20.854-4.806-29.455 0.788l-0.144 0.102z" />
<glyph unicode="&#xe90f;" glyph-name="fi-rs-mic" d="M285.568-64v59.989h180.011v123.477c-134.283 12.803-244.27 104.194-284.186 227.164l-0.657 2.34 57.216 17.963c35.526-110.481 137.39-189.029 257.6-189.029s222.074 78.547 257.068 187.117l0.532 1.912 57.216-18.048c-40.594-125.262-150.553-216.612-283.463-229.315l-1.337-0.103v-123.349h179.968v-60.117zM285.568 448v299.989c0 115.983 94.023 210.005 210.005 210.005s210.005-94.023 210.005-210.005v0-299.989c0-115.983-94.023-210.005-210.005-210.005s-210.005 94.023-210.005 210.005v0zM345.557 448c1.423-81.756 68.033-147.486 149.995-147.486s148.572 65.73 149.993 147.353l0.002 0.133v29.867h-299.989zM345.557 537.984h299.989v60.032h-89.984v59.989h89.984v59.989h-89.984v60.032h87.040c-13.505 69.893-74.198 121.958-147.051 121.958s-133.546-52.065-146.899-121.017l-0.152-0.941h87.040v-60.032h-89.984v-59.989h89.984v-59.989h-89.984z" />
<glyph unicode="&#xe910;" glyph-name="fi-rs-more-ver" d="M426.667 106.667c0 47.128 38.205 85.333 85.333 85.333s85.333-38.205 85.333-85.333c0-47.128-38.205-85.333-85.333-85.333v0c-47.128 0-85.333 38.205-85.333 85.333v0zM426.667 448c0 47.128 38.205 85.333 85.333 85.333s85.333-38.205 85.333-85.333c0-47.128-38.205-85.333-85.333-85.333v0c-47.128 0-85.333 38.205-85.333 85.333v0zM426.667 789.333c0 47.128 38.205 85.333 85.333 85.333s85.333-38.205 85.333-85.333c0-47.128-38.205-85.333-85.333-85.333v0c-47.128 0-85.333 38.205-85.333 85.333v0z" />
<glyph unicode="&#xe911;" glyph-name="fi-rs-notification" d="M403.669-21.333c-19.935 0-36.096 16.161-36.096 36.096s16.161 36.096 36.096 36.096v0h216.576c19.935 0 36.096-16.161 36.096-36.096s-16.161-36.096-36.096-36.096v0zM223.104 86.997c-39.861 0.024-72.168 32.331-72.192 72.19v36.098c0 0.114-0.001 0.249-0.001 0.384 0 30.252 12.499 57.585 32.614 77.116l0.026 0.026c23.137 20.83 38.059 50.394 39.543 83.455l0.009 0.257v163.712c0 0.091 0 0.199 0 0.307 0 121.19 74.644 224.945 180.464 267.8l1.936 0.693c-1.168 5.887-1.836 12.655-1.836 19.58 0 0.211 0.001 0.423 0.002 0.634v-0.032c0 0 0 0.001 0 0.001 0 59.829 48.501 108.331 108.331 108.331s108.331-48.501 108.331-108.331c0-5.662-0.434-11.222-1.272-16.65l0.077 0.606c107.053-39.14 182.085-140.112 182.085-258.608 0-4.996-0.133-9.961-0.397-14.891l0.029 0.688v-163.925c1.6-33.262 16.57-62.74 39.611-83.4l0.112-0.099c20.065-19.519 32.514-46.779 32.514-76.946 0-0.204-0.001-0.407-0.002-0.611v0.031-36.096c-0.024-39.861-32.331-72.168-72.19-72.192h-0.002zM295.296 520.277v-163.712c-1.368-53.622-24.688-101.541-61.268-135.306l-0.13-0.118c-6.689-6.517-10.838-15.613-10.838-25.678 0-0.047 0-0.095 0-0.142v0.007-36.096h577.707v36.096c0 0.040 0 0.087 0 0.135 0 10.065-4.149 19.161-10.83 25.671l-0.008 0.008c-36.668 33.825-59.968 81.667-61.35 134.964l-0.005 0.247v163.925c0.258 3.841 0.405 8.327 0.405 12.846 0 95.337-65.43 175.393-153.834 197.711l-1.408 0.301c-0.911-0.082-1.971-0.128-3.042-0.128-5.941 0-11.546 1.435-16.489 3.978l0.203-0.095c-8.778 1.344-18.905 2.112-29.211 2.112-2.316 0-4.623-0.039-6.92-0.116l0.334 0.009h-6.741c-0.048 0-0.105 0-0.163 0-16.267 0-32.117-1.787-47.363-5.177l1.446 0.27c-2.007-0.708-4.371-1.275-6.811-1.601l-0.186-0.020c-94.68-24.606-163.455-109.317-163.456-210.091v0zM500.096 842.965c-14.147-5.020-24.111-18.253-24.192-33.825v-0.010c0-0.725 0-1.408 0-2.133 10.838 1.444 23.369 2.269 36.092 2.269 3.107 0 6.203-0.049 9.286-0.147l-0.45 0.011q13.696 0.299 27.221-0.811c0.003 0.17 0.005 0.37 0.005 0.57 0 19.935-16.161 36.096-36.096 36.096-4.267 0-8.361-0.74-12.16-2.1l0.252 0.079z" />
<glyph unicode="&#xe912;" glyph-name="fi-rs-phone" d="M85.333 800.896c0.049 40.723 33.048 73.722 73.766 73.771h154.415c40.714-0.049 73.704-33.053 73.728-73.768v-0.002c0-0.155 0-0.338 0-0.521 0-52.773 8.667-103.521 24.654-150.9l-0.974 3.325c2.239-6.771 3.53-14.565 3.53-22.661 0-20.387-8.19-38.862-21.458-52.313l0.008 0.008-66.603-88.619c50.581-98.208 128.628-176.227 223.97-225.419l2.889-1.355 91.008 68.651c12.548 11.892 29.54 19.205 48.239 19.205 0.291 0 0.581-0.002 0.872-0.005h-0.044c0.044 0 0.096 0 0.148 0 8.453 0 16.573-1.422 24.136-4.039l-0.518 0.156c43.866-14.933 94.397-23.553 146.942-23.553 0.331 0 0.662 0 0.993 0.001h-0.051c40.711-0.073 73.685-33.092 73.685-73.813 0 0 0 0 0 0v0-153.984c-0.073-40.69-33.038-73.655-73.721-73.728h-0.007c-430.353 0.485-779.095 349.212-779.605 779.513v0.050zM144.64 800.896c0.461-397.616 322.68-719.819 720.257-720.256h0.042c7.97 0.024 14.421 6.491 14.421 14.464 0 0 0 0 0 0v0 153.941c0 0 0 0 0 0 0 7.973-6.451 14.44-14.419 14.464h-0.002c-0.277-0.001-0.605-0.001-0.934-0.001-59.324 0-116.371 9.744-169.63 27.719l3.737-1.095c-1.371 0.478-2.952 0.754-4.597 0.754-3.949 0-7.526-1.592-10.124-4.169l0.001 0.001-0.725-0.555-108.757-82.389c-4.925-3.744-11.158-6.003-17.917-6.016h-0.003c-0.012 0-0.027 0-0.042 0-4.926 0-9.569 1.215-13.644 3.362l0.16-0.077c-122.115 59.054-218.402 155.438-275.809 274.137l-1.524 3.495c-2.050 3.906-3.253 8.533-3.253 13.442 0 6.737 2.266 12.944 6.078 17.902l-0.051-0.069 80.768 106.923c3.969 3.072 6.5 7.837 6.5 13.193 0 1.591-0.223 3.131-0.641 4.588l0.029-0.117c-16.8 49.418-26.497 106.342-26.497 165.531 0 0.306 0 0.611 0.001 0.917v-0.048c0 7.988-6.476 14.464-14.464 14.464v0h-154.496c-7.97-0.024-14.421-6.491-14.421-14.464 0-0.015 0-0.030 0-0.045v0.002z" />
<glyph unicode="&#xe913;" glyph-name="fi-rs-plus" d="M565.248 501.248v373.419h-106.667v-373.419h-373.248v-106.667h373.419v-373.248h106.667v373.419h373.248v106.667z" />
<glyph unicode="&#xe914;" glyph-name="fi-rs-search" d="M925.696 84.864l-210.347 218.795c51.904 61.543 83.448 141.733 83.448 229.291 0 197.020-159.716 356.736-356.736 356.736s-356.736-159.716-356.736-356.736c0-197.020 159.716-356.736 356.736-356.736 0.078 0 0.155 0 0.233 0h-0.012c0.267-0.001 0.583-0.001 0.899-0.001 76.283 0 146.915 24.195 204.64 65.33l-1.080-0.731 211.968-220.459c8.547-9.378 20.812-15.241 34.447-15.241 25.708 0 46.549 20.841 46.549 46.549 0 12.998-5.327 24.752-13.918 33.197l-0.007 0.006zM442.197 796.843c145.674 0 263.765-118.092 263.765-263.765s-118.092-263.765-263.765-263.765c-145.674 0-263.765 118.092-263.765 263.765v0c0.17 145.605 118.16 263.596 263.749 263.765h0.016z" />
<glyph unicode="&#xe915;" glyph-name="fi-rs-settings" d="M554.965-21.333h-85.973c-33.072 0.087-60.647 23.517-67.123 54.68l-0.077 0.446-15.616 78.037-2.56 0.683c-7.502 2.073-13.95 4.546-20.089 7.552l0.676-0.299-2.219 1.109-64.896-43.691c-10.689-7.192-23.853-11.48-38.019-11.48-18.916 0-36.047 7.646-48.469 20.016l0.002-0.002-60.843 60.757c-12.308 12.474-19.91 29.618-19.91 48.538 0 14.142 4.247 27.292 11.535 38.244l-0.159-0.254 44.459 66.688-1.493 2.347c-3.268 5.121-6.15 11.012-8.346 17.226l-0.187 0.609-0.811 2.304-76.8 15.531c-31.581 6.573-54.979 34.145-55.040 67.193v85.98c0.066 33.090 23.503 60.687 54.68 67.165l0.446 0.077 77.995 15.616 0.683 2.56c2.105 7.484 4.562 13.886 7.523 19.999l-0.312-0.714 1.067 2.261-43.648 64.981c-7.134 10.692-11.383 23.837-11.383 37.975 0 18.912 7.605 36.048 19.924 48.517l60.836 60.836c12.42 12.367 29.551 20.013 48.467 20.013 14.165 0 27.329-4.288 38.265-11.636l-0.246 0.156 66.688-44.416 2.347 1.536c5.134 3.271 11.039 6.154 17.269 8.347l0.608 0.187 2.304 0.811 15.488 76.8c6.57 31.59 34.139 55 67.191 55.083h85.982c33.084-0.083 60.672-23.512 67.165-54.679l0.078-0.447 15.616-78.080 2.56-0.683c7.464-2.010 13.915-4.486 20.033-7.532l-0.619 0.279 2.219-1.067 64.896 43.733c10.694 7.21 23.87 11.509 38.050 11.509 18.925 0 36.062-7.658 48.48-20.044l60.799-60.842c12.312-12.462 19.917-29.598 19.917-48.51 0-14.138-4.25-27.283-11.542-38.228l0.158 0.253-44.416-66.688 1.493-2.347c3.305-5.15 6.191-11.072 8.356-17.331l0.177-0.589 0.811-2.304 76.8-15.445c31.595-6.589 55.004-34.171 55.083-67.234v-85.982c-0.070-33.078-23.508-60.662-54.68-67.123l-0.445-0.077-77.995-15.616-0.683-2.56c-2.063-7.487-4.551-13.935-7.587-20.063l0.291 0.65-1.067-2.261 43.691-64.896c7.134-10.692 11.383-23.837 11.383-37.975 0-18.912-7.605-36.048-19.924-48.517l-60.75-60.793c-12.445-12.36-29.592-19.999-48.523-19.999-14.173 0-27.346 4.282-38.297 11.622l0.248-0.157-66.688 44.501-2.347-1.536c-5.126-3.306-11.020-6.191-17.251-8.357l-0.584-0.177-2.347-0.811-15.488-76.8c-6.541-31.654-34.166-55.119-67.28-55.168h-0.005zM362.027 184.533v0c0.038 0 0.083 0 0.128 0 10.308 0 20.080-2.296 28.832-6.405l-0.416 0.175c5.845-2.603 11.221-4.864 16.469-6.912 21.714-8.1 37.853-26.526 42.59-49.143l0.076-0.436 15.787-78.848h93.056l15.787 78.805c4.824 23.059 20.956 41.493 42.204 49.469l0.463 0.152c5.931 2.304 11.307 4.565 16.384 6.912 8.271 3.96 17.979 6.273 28.227 6.273 13.688 0 26.412-4.127 36.997-11.204l-0.242 0.152 67.371-44.885 65.749 65.792-44.843 67.285c-6.891 10.388-10.995 23.145-10.995 36.861 0 10.249 2.292 19.964 6.391 28.658l-0.174-0.41c2.645 5.76 4.864 11.136 6.869 16.427 8.128 21.71 26.562 37.842 49.184 42.59l0.437 0.077 78.848 15.701v93.099l-78.848 15.787c-23.082 4.777-41.536 20.928-49.47 42.204l-0.151 0.462c-1.877 4.992-4.267 10.325-6.869 16.384-3.929 8.276-6.224 17.983-6.224 28.225 0 13.676 4.091 26.397 11.115 37.005l-0.155-0.249 44.885 67.328-65.749 65.835-67.371-44.885c-10.354-6.947-23.099-11.088-36.81-11.088-10.243 0-19.946 2.311-28.617 6.439l0.403-0.173c-5.589 2.56-11.008 4.821-16.469 6.912-21.627 8.179-37.678 26.601-42.378 49.186l-0.076 0.435-15.787 78.848h-93.056l-15.787-78.848c-4.793-23.074-20.938-41.521-42.204-49.47l-0.463-0.152c-5.973-2.347-11.307-4.565-16.341-6.869-8.279-3.982-18.001-6.309-28.266-6.309-13.694 0-26.421 4.141-36.997 11.239l0.239-0.151-67.328 44.885-65.792-65.835 44.885-67.243c6.958-10.33 11.106-23.054 11.106-36.747 0-10.271-2.334-19.996-6.5-28.675l0.172 0.398c-2.304-4.949-4.565-10.368-6.912-16.512-8.144-21.651-26.583-37.717-49.189-42.379l-0.432-0.075-78.848-15.787v-93.099l78.848-15.787c23.070-4.801 41.514-20.942 49.47-42.204l0.152-0.463c2.133-5.547 4.267-11.051 6.912-16.384 3.987-8.271 6.316-17.985 6.316-28.243 0-13.709-4.16-26.446-11.287-37.017l0.15 0.236-44.885-67.243 65.792-65.792 67.328 44.885c10.091 6.765 22.509 10.796 35.868 10.796 0.155 0 0.31-0.001 0.465-0.002h-0.024zM512 233.728c-118.363 0-214.315 95.952-214.315 214.315s95.952 214.315 214.315 214.315c118.363 0 214.315-95.952 214.315-214.315v0c-0.097-118.332-95.986-214.236-214.303-214.357h-0.011zM512 598.101c-82.875 0-150.059-67.184-150.059-150.059s67.184-150.059 150.059-150.059c82.875 0 150.059 67.184 150.059 150.059v0c-0.121 82.818-67.237 149.919-150.049 150.016h-0.010z" />
<glyph unicode="&#xe916;" glyph-name="fi-rs-share" d="M745.685 21.333h-467.243c-63.623 0-115.2 51.577-115.2 115.2v0 311.467c0 20.524 16.638 37.163 37.163 37.163s37.163-16.638 37.163-37.163v0-311.467c0.049-22.476 18.268-40.68 40.744-40.704h467.373c22.489 0 40.722 18.219 40.747 40.702v311.469c0 20.536 16.648 37.184 37.184 37.184s37.184-16.648 37.184-37.184v0-311.467c0-63.593-51.528-115.151-115.11-115.2h-0.005zM512.043 293.973c-20.533 0-37.181 16.633-37.205 37.16v416.642l-92.373-92.373c-6.726-6.726-16.019-10.887-26.283-10.887-20.528 0-37.169 16.641-37.169 37.169 0 10.264 4.16 19.556 10.887 26.283v0l155.819 155.819c6.718 6.718 15.998 10.874 26.249 10.874 9.62 0 18.386-3.66 24.981-9.663l-0.030 0.027c0.512-0.469 1.024-0.939 1.493-1.493l155.605-155.563c6.723-6.728 10.88-16.020 10.88-26.283 0-20.536-16.648-37.184-37.184-37.184-10.273 0-19.574 4.166-26.304 10.901l-92.246 92.374v-416.64c-0.024-20.5-16.624-37.114-37.115-37.163h-0.005z" />
<glyph unicode="&#xe917;" glyph-name="fi-rs-statistic" d="M512-21.333c-259.206 0-469.333 210.128-469.333 469.333s210.128 469.333 469.333 469.333c259.206 0 469.333-210.128 469.333-469.333v0c-0.291-259.088-210.245-469.042-469.305-469.333h-0.028zM512 853.077c-0.114 0-0.25 0-0.385 0-223.859 0-405.333-181.474-405.333-405.333s181.474-405.333 405.333-405.333c223.859 0 405.333 181.474 405.333 405.333 0 111.897-45.342 213.204-118.656 286.55l0.001-0.001c-73.268 73.301-174.471 118.674-286.272 118.784h-0.021zM546.133 193.92v0c-0.022 0-0.047 0-0.073 0-1.304 0-2.575 0.14-3.799 0.406l0.118-0.021c-11.619 3.049-20.588 12.018-23.586 23.409l-0.051 0.229-115.2 360.363-72.32-150.656c-4.333-10.333-14.025-17.624-25.506-18.427l-0.094-0.005h-103.339c-17.444 4.553-30.109 20.168-30.109 38.741s12.666 34.189 29.831 38.679l0.278 0.062h86.571l94.464 196.907c4.208 10.444 13.963 17.822 25.519 18.513l0.081 0.004h2.432c12.57-2.303 22.468-11.645 25.552-23.713l0.048-0.223 118.613-370.688 105.771 165.291c4.768 8.182 13.348 13.686 23.242 14.078l0.054 0.002h137.813c17.444-4.553 30.109-20.168 30.109-38.741s-12.666-34.189-29.831-38.679l-0.278-0.062h-123.733l-128.725-201.131c-4.803-8.43-13.644-14.073-23.82-14.293l-0.031-0.001z" />
<glyph unicode="&#xe918;" glyph-name="fi-rs-tag" d="M457.429 21.419c-0.067 0-0.146 0-0.226 0-22.599 0-43.061 9.146-57.888 23.938l-290.345 290.131c-14.636 15.932-23.607 37.271-23.607 60.706 0 25.784 10.86 49.031 28.255 65.418l0.045 0.042 384.683 384.725c17.101 17.506 40.943 28.362 67.321 28.362 5.793 0 11.463-0.524 16.966-1.526l-0.575 0.087 243.2-47.275c32.969-6.303 58.551-31.884 64.772-64.346l0.081-0.508 47.189-242.901c0.96-5.028 1.508-10.811 1.508-16.722 0-26.327-10.888-50.111-28.407-67.095l-0.024-0.023-384.768-384.768c-17.252-17.28-41.035-28.034-67.33-28.245h-0.040zM547.627 797.227l-388.267-388.267c-2.739-3.482-4.393-7.929-4.393-12.763 0-4.456 1.405-8.583 3.797-11.963l-0.043 0.065 289.28-289.536c3.279-2.348 7.371-3.755 11.792-3.755 0.024 0 0.049 0 0.073 0h-0.004c0.002 0 0.005 0 0.008 0 6.403 0 12.127 2.908 15.922 7.476l0.027 0.034 0.384 0.469 384.768 384.683c4.933 4.594 8.009 11.126 8.009 18.377 0 1.117-0.073 2.218-0.215 3.297l0.014-0.127-47.147 242.773c-0.752 4.984-4.598 8.887-9.489 9.718l-0.068 0.010-243.2 47.232c-0.914 0.193-1.965 0.303-3.041 0.303-0.131 0-0.262-0.002-0.392-0.005h0.019c-7.030-0.277-13.305-3.297-17.826-8.012l-0.009-0.009zM681.6 526.165c-0.057 0-0.124 0-0.192 0-25.221 0-48.047 10.26-64.53 26.833l-0.004 0.004c-16.619 16.604-26.899 39.549-26.899 64.896 0 50.663 41.070 91.733 91.733 91.733s91.733-41.070 91.733-91.733c0-50.626-41.011-91.674-91.624-91.733h-0.006zM666.069 633.6c-4.028-3.998-6.522-9.537-6.522-15.659s2.494-11.661 6.521-15.657l0.001-0.001c4.018-4.033 9.577-6.528 15.718-6.528 12.253 0 22.187 9.933 22.187 22.187s-9.933 22.187-22.187 22.187c-6.141 0-11.7-2.495-15.717-6.527l-0.001-0.001z" />
<glyph unicode="&#xe919;" glyph-name="fi-rs-tw" d="M981.333 746.965c-32.277-14.48-69.723-25.157-108.94-30.171l-1.994-0.208c39.891 23.961 69.855 60.968 84.268 105.015l0.383 1.353c-35.125-21.203-76.009-37.369-119.56-46.176l-2.466-0.416c-35.196 37.469-85.059 60.808-140.373 60.808-106.262 0-192.407-86.133-192.427-192.391v-0.002c-0.014-0.864-0.021-1.884-0.021-2.905 0-14.52 1.562-28.675 4.526-42.306l-0.239 1.308c-160.457 8.062-301.609 84.392-396.016 200.309l-0.784 0.993c-16.5-27.797-26.251-61.278-26.251-97.036 0-66.516 33.742-125.152 85.043-159.724l0.685-0.435c-32.040 0.874-61.873 9.546-87.91 24.173l0.956-0.493v-2.133c0.111-92.825 65.626-170.316 152.932-188.873l1.265-0.225c-14.706-4.041-31.591-6.363-49.019-6.363-0.512 0-1.023 0.002-1.534 0.006h0.078c-0.901-0.017-1.963-0.027-3.027-0.027-11.824 0-23.365 1.206-34.509 3.502l1.1-0.189c25.609-76.955 96.011-131.869 179.543-134.053l0.254-0.005c-64.958-51.181-147.971-82.091-238.204-82.091-0.136 0-0.273 0-0.409 0h0.021c-0.511-0.003-1.115-0.004-1.72-0.004-15.621 0-31.010 0.994-46.108 2.921l1.791-0.187c82.918-54.15 184.44-86.36 293.485-86.36 0.607 0 1.213 0.001 1.82 0.003h-0.094c1.132-0.009 2.47-0.013 3.81-0.013 300.396 0 543.915 243.519 543.915 543.915 0 1.295-0.005 2.589-0.014 3.882l0.001-0.199c0 8.533-0.299 16.725-0.683 24.875 38.092 27.489 70.112 60.624 95.553 98.543l0.873 1.382z" />
<glyph unicode="&#xe91a;" glyph-name="fi-rs-user" d="M512-21.333c-0.177 0-0.388 0-0.598 0-122.456 0-233.927 47.035-317.331 124.024l0.319-0.291c-0.992 0.811-1.882 1.62-2.729 2.473l-0.002 0.002c-91.791 85.89-148.992 207.77-148.992 343.009 0 259.206 210.128 469.333 469.333 469.333 259.165 0 469.267-210.061 469.333-469.211v-0.006c0.001-0.377 0.002-0.823 0.002-1.269 0-133.846-56.464-254.504-146.872-339.453l-0.245-0.228-0.341-0.341c-1.721-2.038-3.64-3.822-5.752-5.354l-0.093-0.064-0.384-0.299c-82.956-75.834-193.873-122.3-315.642-122.325h-0.006zM466.091 306.56c-102.323-0.541-188.408-69.436-214.956-163.324l-0.382-1.582-0.683-2.688 2.091-1.749c69.806-58.713 160.689-94.385 259.904-94.385s190.097 35.673 260.522 94.891l-0.618-0.506 2.091 1.792-0.725 2.645c-26.886 95.508-113.026 164.425-215.331 164.864h-0.050zM512 853.077c-223.659-0.146-404.931-181.418-405.077-405.063v-0.014c-0.002-0.451-0.003-0.986-0.003-1.52 0-95.186 33.188-182.621 88.623-251.364l-0.599 0.767 4.267-5.632 2.816 6.571c45.34 102.931 146.299 173.567 263.801 173.952h91.868c117.557-0.328 218.541-70.944 263.167-172.022l0.727-1.845 2.816-6.613 4.48 5.632c54.622 68.455 87.646 156.238 87.646 251.734 0 223.652-181.139 404.998-404.713 405.333h-0.032zM512 415.829c-98.239 0-177.877 79.638-177.877 177.877s79.638 177.877 177.877 177.877c98.224 0 177.853-79.614 177.877-177.832v-0.002c-0.097-98.209-79.672-177.799-177.866-177.92h-0.012zM512 707.328c-62.751 0-113.621-50.87-113.621-113.621s50.87-113.621 113.621-113.621c62.751 0 113.621 50.87 113.621 113.621v0c-0.073 62.722-50.899 113.548-113.614 113.621h-0.007z" />
<glyph unicode="&#xe91b;" glyph-name="fi-rs-verified" d="M916.437 540.032c-12.315 8.337-22.947 17.857-32.16 28.626l-0.181 0.217c0.763 16.362 4.062 31.727 9.514 46.030l-0.34-1.017c7.642 15.634 12.111 34.018 12.111 53.447 0 20.679-5.062 40.175-14.015 57.318l0.325-0.684c-22.588 22.685-53.845 36.722-88.38 36.722-5.816 0-11.54-0.398-17.144-1.169l0.65 0.073c-1.821-0.077-3.958-0.121-6.105-0.121-13.738 0-27.054 1.803-39.725 5.186l1.073-0.244c-7.585 11.706-13.804 25.229-17.954 39.63l-0.265 1.074c-11.947 34.133-26.88 76.459-66.773 89.6-5.984 1.046-12.875 1.644-19.905 1.644-32.722 0-62.418-12.957-84.238-34.020l0.036 0.034c-11.705-9.409-25.248-17.183-39.91-22.667l-1.007-0.33c-15.686 5.805-29.245 13.581-41.244 23.218l0.284-0.221c-21.801 21.024-51.51 33.977-84.244 33.977-7.015 0-13.891-0.595-20.58-1.737l0.718 0.101c-39.893-12.8-54.784-55.467-66.773-89.6-4.405-15.426-10.549-28.904-18.379-41.205l0.374 0.629c-11.618-3.225-24.959-5.079-38.732-5.079-2.194 0-4.377 0.047-6.548 0.14l0.31-0.011c-4.955 0.697-10.678 1.096-16.494 1.096-34.535 0-65.792-14.037-88.376-36.718l-0.004-0.004c-8.624-16.459-13.685-35.955-13.685-56.634 0-19.428 4.467-37.812 12.429-54.182l-0.323 0.736c5.040-13.18 8.359-28.425 9.241-44.32l0.017-0.395c-9.364-11.162-20.034-20.787-31.885-28.796l-0.541-0.345c-28.971-22.059-64.939-49.536-64.939-92.032s35.968-69.973 64.896-91.989c12.315-8.337 22.947-17.857 32.16-28.626l0.181-0.217c-0.763-16.362-4.062-31.727-9.514-46.030l0.34 1.017c-7.642-15.634-12.111-34.018-12.111-53.447 0-20.679 5.062-40.175 14.015-57.318l-0.325 0.684c22.588-22.685 53.845-36.722 88.38-36.722 5.816 0 11.54 0.398 17.144 1.169l-0.65-0.073c1.821 0.077 3.958 0.121 6.105 0.121 13.738 0 27.054-1.803 39.725-5.186l-1.073 0.244c7.584-11.706 13.803-25.229 17.954-39.629l0.265-1.075c11.989-34.133 26.88-76.459 66.773-89.6 6.535-2.217 14.062-3.498 21.887-3.499h0.001c31.722 3.834 59.879 16.743 82.432 36.018l-0.213-0.178c11.704 9.425 25.247 17.214 39.911 22.709l1.006 0.331c15.686-5.806 29.244-13.582 41.245-23.218l-0.285 0.221c21.807-21.023 51.52-33.974 84.259-33.974 7.010 0 13.881 0.594 20.566 1.734l-0.718-0.101c39.893 12.8 54.784 55.467 66.773 89.6 4.405 15.426 10.549 28.904 18.379 41.205l-0.374-0.629c11.618 3.225 24.959 5.079 38.732 5.079 2.194 0 4.377-0.047 6.548-0.14l-0.31 0.011c4.955-0.697 10.678-1.096 16.494-1.096 34.535 0 65.792 14.037 88.376 36.718l0.004 0.004c8.624 16.459 13.685 35.955 13.685 56.634 0 19.428-4.467 37.812-12.429 54.182l0.323-0.736c-5.040 13.18-8.359 28.425-9.241 44.32l-0.017 0.395c9.364 11.162 20.034 20.787 31.885 28.796l0.541 0.345c28.971 22.016 64.939 49.493 64.939 91.947s-35.968 69.973-64.896 91.989zM686.336 518.144l-195.669-195.541c-7.082-7.131-16.892-11.545-27.733-11.545s-20.651 4.414-27.731 11.543l-0.002 0.002-97.536 97.749c-6.98 7.063-11.292 16.777-11.292 27.498 0 21.608 17.517 39.125 39.125 39.125 10.371 0 19.799-4.035 26.801-10.62l-0.020 0.019 70.827-70.827 167.893 167.893c7.155 7.607 17.286 12.345 28.524 12.345 21.608 0 39.125-17.517 39.125-39.125 0-10.888-4.447-20.736-11.624-27.829l-0.004-0.004z" />
<glyph unicode="&#xe91c;" glyph-name="fi-rs-wave" d="M584.917-21.205h-2.432c-0.025 0-0.055 0-0.084 0-34.896 0-65.76 17.261-84.521 43.711l-0.216 0.321c-12.375 16.994-19.798 38.285-19.798 61.31 0 0.076 0 0.152 0 0.227v-0.012 730.709c-0.013 4.802-1.146 9.336-3.151 13.359l0.079-0.175-1.28 2.645c-5.856 13.077-18.756 22.022-33.744 22.022-0.242 0-0.483-0.002-0.724-0.007l0.036 0.001c-0.017 0-0.037 0-0.057 0-3.519 0-6.944-0.404-10.231-1.169l0.304 0.060c-17.852-3.536-31.126-19.070-31.126-37.705 0-0.455 0.008-0.907 0.024-1.358l-0.002 0.065v-544.469c0-57.732-46.801-104.533-104.533-104.533s-104.533 46.801-104.533 104.533v0 330.411c0.003 0.174 0.004 0.378 0.004 0.584 0 16.806-10.38 31.187-25.079 37.081l-0.269 0.095c-4.784 1.987-10.341 3.146-16.166 3.157h-0.004c-11.179-0.051-21.245-4.772-28.355-12.311l-0.018-0.019c-7.278-7.325-11.776-17.42-11.776-28.565 0-0.038 0-0.075 0-0.112v0.006-273.067c0-17.838-14.461-32.299-32.299-32.299s-32.299 14.461-32.299 32.299v0 273.152c0.14 57.968 46.816 104.988 104.638 105.685l0.066 0.001c14.712-0.026 28.713-3.035 41.442-8.455l-0.695 0.263c38.673-15.652 65.456-52.901 65.456-96.406 0-0.382-0.002-0.764-0.006-1.146v0.058-330.411c0-0.026 0-0.057 0-0.087 0-10.811 4.314-20.614 11.314-27.782l-0.008 0.008c7.005-7.471 16.929-12.134 27.942-12.16h0.005c5.66 0.032 11.052 1.141 15.993 3.133l-0.292-0.104c14.691 5.884 24.878 20.001 24.878 36.497 0 0.174-0.001 0.348-0.003 0.521v-0.026 544.341c-0.005 0.395-0.009 0.861-0.009 1.328 0 49.108 34.383 90.186 80.389 100.474l0.686 0.129c7.511 1.815 16.135 2.857 25.002 2.859h0.001c40.496-0.074 75.469-23.644 92.021-57.801l0.267-0.61 1.28-2.645c6.022-12.126 9.55-26.408 9.557-41.512v-730.67c0-0.024 0-0.053 0-0.082 0-8.927 2.88-17.181 7.761-23.884l-0.081 0.116c7.061-10.357 18.802-17.068 32.112-17.068 0.111 0 0.221 0 0.332 0.001h0.922c22.462 0.024 40.662 18.238 40.662 40.704 0 0.105 0 0.21-0.001 0.315v-0.016 52.352c-0.014 0.35-0.021 0.761-0.021 1.174 0 17.838 14.461 32.299 32.299 32.299s32.299-14.461 32.299-32.299c0-0.413-0.008-0.824-0.023-1.233l0.002 0.059v-52.608c-0.043-57.652-46.391-104.465-103.861-105.258l-0.075-0.001zM876.757 162.603v1.323c-27.923 0.077-53.368 10.619-72.635 27.908l0.102-0.090c-20.725 18.965-33.674 46.133-33.674 76.326 0 0.497 0.004 0.992 0.010 1.487l-0.001-0.075v329.259c0.001 0.113 0.002 0.247 0.002 0.38 0 15.275-8.548 28.553-21.121 35.312l-0.214 0.105c-5.767 3.205-12.635 5.124-19.943 5.205h-0.025c-8.022-0.043-15.472-2.458-21.694-6.577l0.148 0.092c-11.505-7.303-19.029-19.976-19.029-34.406 0-0.039 0-0.078 0-0.117v0.006-276.693c0.014-0.35 0.021-0.761 0.021-1.174 0-17.838-14.461-32.299-32.299-32.299s-32.299 14.461-32.299 32.299c0 0.413 0.008 0.824 0.023 1.233l-0.002-0.059v276.693c0 58.227 47.202 105.429 105.429 105.429s105.429-47.202 105.429-105.429v0-329.344c-0.014-0.395-0.023-0.859-0.023-1.325 0-11.277 4.813-21.43 12.497-28.517l0.027-0.024c7.738-6.835 17.968-11.008 29.173-11.008 0.034 0 0.068 0 0.102 0h-0.005c0.226-0.005 0.492-0.008 0.76-0.008 15.157 0 28.248 8.851 34.384 21.666l0.099 0.229c2.954 5.532 4.69 12.099 4.693 19.071v263.681c0 17.838 14.461 32.299 32.299 32.299s32.299-14.461 32.299-32.299v0-263.765c-0.030-17.978-4.526-34.9-12.438-49.723l0.278 0.571c-17.45-33.741-52.085-56.406-92.014-56.406-0.111 0-0.223 0-0.334 0.001h0.017v-1.579z" />
<glyph unicode="&#xe91d;" glyph-name="fi-rs-yt" d="M962.005 655.659c-11.2 40.375-42.355 71.531-81.904 82.534l-0.827 0.196c-73.472 20.096-367.275 20.096-367.275 20.096s-293.803 0-367.275-19.328c-40.301-11.769-71.327-43.049-82.526-82.653l-0.204-0.845c-12.311-65.587-19.352-141.040-19.352-218.137 0-2.692 0.009-5.382 0.026-8.069l-0.002 0.414c-0.017-2.378-0.026-5.19-0.026-8.005 0-76.96 7.042-152.276 20.517-225.337l-1.163 7.593c11.208-40.371 42.36-71.523 81.903-82.534l0.827-0.197c74.24-20.096 367.275-20.096 367.275-20.096s293.803 0 367.275 19.328c40.375 11.2 71.531 42.355 82.534 81.904l0.196 0.827c12.31 65.595 19.351 141.059 19.351 218.168 0 2.665-0.008 5.328-0.025 7.99l0.002-0.409c0.051 4.092 0.081 8.926 0.081 13.766 0 75.231-7.063 148.813-20.562 220.118l1.153-7.324zM418.432 289.152v281.6l244.309-140.8z" />
<glyph unicode="&#xe91e;" glyph-name="fi-rs-camera-f" d="M223.147 50.816c-99.657 0.049-180.432 80.823-180.48 180.476v288.857c0.049 99.657 80.823 180.432 180.476 180.48h49.924l42.24 84.565c18.044 35.812 54.521 59.947 96.635 59.947 0.122 0 0.244 0 0.365-0.001h199.234c0.119 0 0.259 0.001 0.399 0.001 42.099 0 78.561-24.138 96.3-59.329l0.282-0.618 42.325-84.565h49.92c99.647-0.073 180.407-80.833 180.48-180.473v-288.86c-0.073-99.647-80.833-180.407-180.473-180.48h-0.007zM295.211 375.851c0-0.025 0-0.055 0-0.085 0-119.612 96.964-216.576 216.576-216.576s216.576 96.964 216.576 216.576c0 119.552-96.867 216.479-216.396 216.576h-0.010c-119.628-0.024-216.607-96.959-216.704-216.567v-0.009zM367.744 375.851c0.146 79.584 64.695 144.043 144.298 144.043 79.694 0 144.299-64.605 144.299-144.299 0-79.679-64.58-144.274-144.254-144.299h-0.002c-0.051 0-0.111 0-0.171 0-79.67 0-144.256 64.586-144.256 144.256 0 0.075 0 0.15 0 0.225v-0.012z" />
<glyph unicode="&#xe91f;" glyph-name="fi-rs-camera-o" d="M803.413 33.195h-583.083c-97.969 0.53-177.244 79.819-177.749 177.744v364.507c0.505 97.982 79.775 177.281 177.697 177.834h86.282l15.147 45.739c15.68 37.687 52.205 63.702 94.806 63.702 0.105 0 0.209 0 0.314 0h190.064c0.166 0.001 0.362 0.002 0.558 0.002 42.486 0 78.892-26.038 94.129-63.026l0.247-0.677 14.251-42.88 1.152-2.816h86.187c98.011-0.506 177.329-79.823 177.834-177.786v-364.251c-0.433-98.092-79.763-177.512-177.779-178.090h-0.055zM220.331 689.109c-62.714-0.073-113.53-50.905-113.579-113.617v-364.464c0.073-62.699 50.88-113.506 113.572-113.579h583.090c62.649 0.073 113.408 50.877 113.408 113.536 0 0.015 0 0.030 0 0.045v-0.002 364.459c0 0.025 0 0.055 0 0.085 0 62.659-50.759 113.463-113.401 113.536h-109.404c-14.048 0.035-25.98 9.057-30.353 21.619l-0.068 0.226-22.571 68.267-0.768 1.067c-7.801 11.199-20.615 18.436-35.118 18.436-0.194 0-0.387-0.001-0.58-0.004h-185.315c-0.101 0.001-0.219 0.001-0.338 0.001-14.668 0-27.649-7.221-35.582-18.301l-0.090-0.132v-0.512l-22.912-68.651c-4.419-12.804-16.364-21.838-30.42-21.845h-0.001zM512.085 215.509c-0.051 0-0.111 0-0.171 0-118.292 0-214.187 95.895-214.187 214.187s95.895 214.187 214.187 214.187c118.202 0 214.041-95.749 214.187-213.917v-0.014c-0.097-118.262-95.795-214.14-213.979-214.528h-0.037zM512.085 579.712c-0.101 0-0.221 0-0.341 0-82.852 0-150.016-67.164-150.016-150.016s67.164-150.016 150.016-150.016c82.852 0 150.016 67.164 150.016 150.016 0 0.090 0 0.18 0 0.269v-0.014c-0.169 82.603-67.075 149.523-149.656 149.717h-0.019z" />
<glyph unicode="&#xe920;" glyph-name="fi-rs-mute" d="M909.099 54.827l-106.325 106.283c-29.282-18.805-63.293-33.606-99.616-42.527l-2.315-0.481c-3.209-0.925-6.895-1.457-10.705-1.457-22.127 0-40.064 17.937-40.064 40.064 0 19.224 13.54 35.286 31.604 39.169l0.263 0.047c23.547 5.801 44.225 13.997 63.412 24.566l-1.332-0.672-187.008 187.008v-293.803c-0.444-37.033-30.569-66.883-67.665-66.883-18.237 0-34.79 7.214-46.959 18.945l0.021-0.020-0.597 0.512-195.413 195.669-93.867 1.536c-60.808 1.356-109.627 50.789-109.994 111.708v146.127c0.097 61.847 50.232 111.952 112.081 112h92.591l41.344 42.667-106.155 106.155c-7.715 7.651-12.491 18.254-12.491 29.973 0 23.311 18.897 42.208 42.208 42.208 11.592 0 22.092-4.673 29.72-12.238l726.909-726.653c7.644-7.644 12.371-18.203 12.371-29.867 0-23.327-18.911-42.238-42.238-42.238-11.664 0-22.223 4.728-29.867 12.371v0zM122.923 520.491v-145.963c0.341-17.159 14.030-31.012 31.091-31.614l0.056-0.002 126.080-1.749 196.267-196.736v342.784l-131.157 131.072-64.256-66.133h-126.507c-17.355-0.167-31.382-14.179-31.573-31.513v-0.018zM847.573 313.344c21.342 37.243 33.927 81.867 33.927 129.431 0 75.742-31.915 144.030-83.030 192.15l-0.135 0.125c-31.406 28.321-69.766 49.557-112.184 60.838l-1.907 0.431c-18.982 3.367-33.211 19.741-33.211 39.438 0 2.468 0.223 4.884 0.651 7.228l-0.037-0.245v0.555c3.545 18.774 19.817 32.783 39.361 32.783 2.465 0 4.878-0.223 7.219-0.649l-0.245 0.037c59.752-14.254 111.584-42.313 153.89-80.686l-0.29 0.259c68.132-62.694 110.672-152.293 110.672-251.827 0-69.837-20.942-134.783-56.888-188.9l0.787 1.26zM724.565 435.072c0.545 3.832 0.856 8.258 0.856 12.756 0 22.712-7.933 43.571-21.179 59.958l0.141-0.181c-5.864 6.705-13.1 12.055-21.287 15.636l-0.387 0.151c-18.319 4.131-31.796 20.265-31.796 39.546 0 3.086 0.345 6.092 0.999 8.981l-0.052-0.271c2.587 10.645 9.005 19.482 17.676 25.161l0.158 0.097c6.093 3.958 13.546 6.312 21.548 6.312 3.115 0 6.147-0.357 9.057-1.031l-0.269 0.053c62.125-21.333 105.976-79.254 105.976-147.417 0-3.346-0.106-6.667-0.314-9.961l0.023 0.45c0.008-0.616 0.012-1.344 0.012-2.073 0-26.095-5.564-50.89-15.571-73.264l0.455 1.139zM477.099 684.843v65.536l-33.408-32.683-56.064 56.661 55.467 56.619c11.985 11.704 28.393 18.924 46.487 18.924 9.491 0 18.517-1.986 26.687-5.566l-0.428 0.167c12.199-5.11 22.224-13.379 29.337-23.795l0.146-0.227c7.285-9.824 11.836-22.064 12.327-35.341l0.003-0.115v-180.651z" />
<glyph unicode="&#xe921;" glyph-name="fi-rs-pause" d="M629.675 108.245v679.509c0 24.412 19.79 44.203 44.203 44.203s44.203-19.79 44.203-44.203v0-679.509c0-24.412-19.79-44.203-44.203-44.203s-44.203 19.79-44.203 44.203v0zM305.92 108.245v679.509c0 24.412 19.79 44.203 44.203 44.203s44.203-19.79 44.203-44.203v0-679.509c0-24.412-19.79-44.203-44.203-44.203s-44.203 19.79-44.203 44.203v0z" />
<glyph unicode="&#xe922;" glyph-name="fi-rs-play" d="M307.285 64c0 0 0 0 0 0-67.346 0-121.941 54.595-121.941 121.941 0 0.090 0 0.18 0 0.27v-0.014 523.648c0 0.072 0 0.157 0 0.242 0 67.346 54.595 121.941 121.941 121.941 24.434 0 47.189-7.186 66.267-19.56l-0.475 0.289 409.387-262.571c33.97-22.023 56.128-59.752 56.128-102.656s-22.157-80.633-55.653-102.368l-0.474-0.288-409.6-261.675c-18.547-12.034-41.226-19.192-65.577-19.2h-0.002zM307.285 747.733c-20.812-0.024-37.675-16.902-37.675-37.717 0-0.015 0-0.030 0-0.045v0.002-523.861c0-0.039 0-0.086 0-0.132 0-20.831 16.887-37.717 37.717-37.717 7.541 0 14.564 2.213 20.457 6.024l-0.148-0.090 409.344 261.675c10.462 6.819 17.282 18.464 17.282 31.701s-6.819 24.882-17.137 31.613l-0.145 0.089-409.387 262.528c-5.731 3.719-12.74 5.931-20.265 5.931-0.015 0-0.031 0-0.046 0h0.002z" />
<glyph unicode="&#xe923;" glyph-name="fi-rs-volume" d="M450.901 57.088l-0.853 0.512-198.741 199.808-96.341 1.835c-62.246 1.174-112.256 51.911-112.256 114.328 0 0.007 0 0.013 0 0.020v-0.001 148.693c0.073 63.123 51.224 114.274 114.34 114.347h94.514l198.187 200.832c12.322 12.842 29.626 20.822 48.794 20.822 0.096 0 0.191 0 0.287-0.001h-0.015c37.962 0 68.736-30.774 68.736-68.736 0-0.015 0-0.030 0-0.045v0.002-683.648c-0.482-37.663-31.127-68.009-68.859-68.009-18.572 0-35.426 7.352-47.812 19.304l0.020-0.020zM124.715 522.155v-148.693c-0.001-0.090-0.001-0.195-0.001-0.301 0-17.524 14.086-31.757 31.552-31.997h0.279l129.408-2.645 199.765-200.235v618.667l-199.765-202.112h-128.896c-17.849-0.048-32.299-14.528-32.299-32.384 0-0.075 0-0.15 0.001-0.225v0.011zM664.704 143.189c-0.477 2.342-0.75 5.035-0.75 7.791 0 19.874 14.198 36.431 33.005 40.083l0.257 0.042c44.931 11.753 83.883 32.966 116.233 61.492l-0.307-0.266c52.932 45.036 86.289 111.706 86.289 186.166 0 2.487-0.037 4.964-0.111 7.433l0.009-0.362c0.063 2.091 0.099 4.551 0.099 7.020 0 74.87-32.953 142.043-85.147 187.807l-0.285 0.245c-31.899 29.165-70.977 51.025-114.253 62.622l-1.928 0.44c-18.99 3.835-33.087 20.387-33.087 40.231 0 22.645 18.358 41.003 41.003 41.003 2.176 0 4.312-0.169 6.396-0.496l-0.231 0.030c61.026-14.671 113.928-43.485 157.031-82.849l-0.273 0.246c69.389-61.448 112.908-150.757 112.908-250.231 0-2.134-0.020-4.263-0.060-6.387l0.005 0.319c-0.406-163.101-114.25-299.497-266.786-334.487l-2.313-0.446c-2.257-0.515-4.848-0.81-7.509-0.811h-0.001c-19.937 0.005-36.535 14.298-40.109 33.196l-0.040 0.254zM666.709 321.365c-0.479 2.288-0.754 4.917-0.754 7.61 0 18.528 12.992 34.021 30.363 37.867l0.258 0.048c27.156 12.669 45.638 39.741 45.638 71.131 0 3.231-0.196 6.416-0.576 9.544l0.037-0.376c0.302 2.634 0.474 5.686 0.474 8.778 0 32.005-18.459 59.698-45.312 73.015l-0.475 0.213c-17.474 4.036-30.304 19.464-30.304 37.888 0 21.449 17.388 38.837 38.837 38.837 3.025 0 5.969-0.346 8.795-1l-0.262 0.051c62.292-20.896 106.375-78.736 106.375-146.873 0-3.869-0.142-7.704-0.421-11.501l0.030 0.507c0.051-1.541 0.080-3.354 0.080-5.173 0-42.79-16.053-81.831-42.464-111.429l0.144 0.164c-16.691-18.86-38.54-32.802-63.336-39.635l-0.92-0.216c-2.354-0.528-5.062-0.838-7.84-0.853h-0.011c-0.024 0-0.053 0-0.082 0-18.872 0-34.61 13.421-38.191 31.239l-0.042 0.249z" />
<glyph unicode="&#xe924;" glyph-name="fi-rs-add-news" d="M453.248 242.56c0 0.013 0 0.028 0 0.043 0 145.815 118.206 264.021 264.021 264.021s264.021-118.206 264.021-264.021c0-145.815-118.206-264.021-264.021-264.021v0c-145.683 0.291-263.706 118.299-264.021 263.949v0.030zM570.581 242.56c0-0.013 0-0.028 0-0.043 0-21.608 17.517-39.125 39.125-39.125 0.045 0 0.090 0 0.135 0h68.473v-68.267c0-21.561 17.479-39.040 39.040-39.040s39.040 17.479 39.040 39.040v0 68.267h68.48c21.585 0 39.083 17.498 39.083 39.083s-17.498 39.083-39.083 39.083h-68.48v68.48c0 21.561-17.479 39.040-39.040 39.040s-39.040-17.479-39.040-39.040v0-68.48h-68.48c-0.038 0-0.083 0-0.128 0-21.563 0-39.052-17.444-39.125-38.991v-0.007zM150.229 95.957c-0.038 0-0.083 0-0.128 0-59.352 0-107.471 48.090-107.52 107.43v606.17c0 0.013 0 0.028 0 0.043 0 59.452 48.196 107.648 107.648 107.648h449.579c59.484 0 107.709-48.21 107.733-107.688v-225.282c-42.646-0.786-83.035-9.538-120.037-24.823l2.192 0.802c0.287 1.205 0.451 2.588 0.451 4.010 0 0.33-0.009 0.659-0.026 0.985l0.002-0.045c-0.144 21.574-17.594 39.024-39.154 39.168h-351.843c-21.644 0-39.189-17.546-39.189-39.189s17.546-39.189 39.189-39.189v0h326.741c-38.912-26.418-71.202-59.483-95.96-97.863l-0.808-1.337c-6.608 12.58-19.575 21.017-34.515 21.035h-195.501c-21.585 0-39.083-17.498-39.083-39.083s17.498-39.083 39.083-39.083h195.499c0.264-0.013 0.573-0.020 0.884-0.020 1.547 0 3.053 0.178 4.497 0.515l-0.133-0.026c-15.708-37.56-24.832-81.204-24.832-126.979 0-0.194 0-0.388 0-0.581v0.030c0-0.163 0-0.355 0-0.548 0-53.067 12.119-103.304 33.741-148.093l-0.887 2.038zM159.915 721.707c0.024-21.637 17.57-39.168 39.211-39.168 0.015 0 0.030 0 0.045 0h156.243c0.385-0.014 0.837-0.021 1.291-0.021 21.585 0 39.083 17.498 39.083 39.083s-17.498 39.083-39.083 39.083c-0.454 0-0.906-0.008-1.357-0.023l0.065 0.002h-156.245c-0.026 0-0.056 0-0.086 0-21.542 0-39.022-17.391-39.167-38.898v-0.014z" />
<glyph unicode="&#xe925;" glyph-name="fi-rs-article-f" d="M877.056 917.333h-730.112c-57.513-0.193-104.084-46.764-104.277-104.259v-730.131c0.193-57.513 46.764-104.084 104.259-104.277h730.131c57.513 0.193 104.084 46.764 104.277 104.259v730.131c-0.193 57.513-46.764 104.084-104.259 104.277h-0.019zM616.277 187.264h-365.013v104.277h365.056zM772.736 395.861h-521.472v104.277h521.472zM772.736 604.459h-521.472v104.277h521.472z" />
<glyph unicode="&#xe926;" glyph-name="fi-rs-check" d="M868.736 791.68l-462.123-462.123-251.349 251.349-112.597-112.597 363.947-363.947 574.72 574.72z" />
<glyph unicode="&#xe927;" glyph-name="fi-rs-delete" d="M665.173-21.376h-306.517c-95.013 0.009-172.627 74.494-177.645 168.258l-0.019 0.446-27.349 518.869v3.627h-41.899c-18.144 0-32.853 14.709-32.853 32.853s14.709 32.853 32.853 32.853v0h222.080v3.541c-0.014 0.82-0.021 1.788-0.021 2.758 0 98.451 79.81 178.261 178.261 178.261s178.261-79.81 178.261-178.261c0-0.97-0.008-1.938-0.023-2.904l0.002 0.146v-3.541h221.867c18.144 0 32.853-14.709 32.853-32.853s-14.709-32.853-32.853-32.853v0h-41.6l-27.435-522.368c-5.105-94.3-82.814-168.832-177.931-168.832-0.011 0-0.022 0-0.033 0h0.002zM219.179 669.824v0l27.264-518.656c3.172-59.732 52.38-106.965 112.619-106.965 0.022 0 0.045 0 0.067 0h305.746c0.044 0 0.097 0 0.149 0 60.239 0 109.446 47.233 112.607 106.684l0.012 0.281 27.008 514.944 0.256 3.712zM512 851.755c-62.204-0.073-112.61-50.479-112.683-112.676v-3.548h225.579v3.541c-0.194 62.213-50.66 112.573-112.894 112.597h-0.002zM621.355 233.344c0 0 0 0 0 0-18.114 0-32.805 14.66-32.853 32.763v218.16c-0.014 0.352-0.021 0.766-0.021 1.181 0 18.074 14.652 32.725 32.725 32.725s32.725-14.652 32.725-32.725c0-0.415-0.008-0.829-0.023-1.241l0.002 0.059v-218.155c0-0.025 0-0.056 0-0.086 0-18.037-14.574-32.671-32.588-32.768h-0.009zM402.859 233.344c-18.078 0.048-32.72 14.69-32.768 32.763v218.16c-0.014 0.353-0.021 0.766-0.021 1.182 0 18.097 14.671 32.768 32.768 32.768s32.768-14.671 32.768-32.768c0-0.416-0.008-0.83-0.023-1.242l0.002 0.059v-218.155c0 0 0 0 0 0 0-18.114-14.66-32.805-32.763-32.853h-0.005z" />
<glyph unicode="&#xe928;" glyph-name="fi-rs-direction" d="M891.691 509.184c-7.050 14.394-21.586 24.133-38.398 24.149h-170.669v298.667c0 23.564-19.103 42.667-42.667 42.667v0h-256c-23.564 0-42.667-19.103-42.667-42.667v0-298.667h-170.667c-0.005 0-0.010 0-0.016 0-23.564 0-42.667-19.103-42.667-42.667 0-10.128 3.529-19.432 9.424-26.749l-0.064 0.082 341.333-426.667c7.885-9.801 19.877-16.020 33.323-16.020s25.438 6.219 33.258 15.938l0.064 0.082 341.333 426.667c5.827 7.233 9.352 16.533 9.352 26.657 0 6.738-1.562 13.112-4.344 18.778l0.111-0.251z" />
<glyph unicode="&#xe929;" glyph-name="fi-rs-image-f" d="M963.499 876.373c-10.986 11.018-26.18 17.835-42.966 17.835-0.030 0-0.060 0-0.090 0h-817.062c-0.013 0-0.028 0-0.043 0-33.602 0-60.843-27.24-60.843-60.843 0-0.015 0-0.030 0-0.045v0.002-770.645c0-33.602 27.24-60.843 60.843-60.843 0.015 0 0.030 0 0.045 0h817.064c33.626 0 60.885 27.259 60.885 60.885v0 770.603c0 0.025 0 0.055 0 0.085 0 16.786-6.817 31.98-17.833 42.964l-0.001 0.001zM353.365 699.349c0.013 0 0.028 0 0.043 0 53.538 0 96.939-43.401 96.939-96.939s-43.401-96.939-96.939-96.939c-53.523 0-96.914 43.377-96.939 96.894v0.002c0 53.538 43.401 96.939 96.939 96.939 0.015 0 0.030 0 0.045 0h-0.002zM841.856 212.395c-4.035-9.123-12.996-15.379-23.421-15.403l-612.654-0.299c-14.102 0.048-25.516 11.491-25.516 25.6 0 5.717 1.874 10.997 5.042 15.258l-0.049-0.068 109.397 147.285c4.722 6.21 12.115 10.179 20.434 10.179 7.002 0 13.347-2.811 17.969-7.366l49.405-49.405c4.625-4.585 10.992-7.418 18.021-7.418 8.287 0 15.655 3.938 20.334 10.045l0.045 0.061 184.832 244.864c4.725 6.136 12.074 10.051 20.337 10.051 9.539 0 17.86-5.217 22.264-12.954l0.066-0.126 192-347.776c2.174-3.654 3.459-8.056 3.459-12.759 0-3.527-0.723-6.885-2.028-9.934l0.063 0.165z" />
<glyph unicode="&#xe92a;" glyph-name="fi-rs-link" d="M299.477 21.333h-1.749c-0.098 0-0.214 0-0.329 0-28.89 0-56.42 5.818-81.484 16.347l1.387-0.517c-27.097 11.359-50.236 27.041-69.68 46.427l0.005-0.005c-38.479 38.353-62.288 91.404-62.288 150.017 0 59.768 24.757 113.754 64.575 152.263l0.059 0.057 171.264 171.264c38.374 38.45 91.428 62.237 150.037 62.237s111.664-23.787 150.034-62.234l0.003-0.003c7.346-7.382 11.887-17.561 11.887-28.8s-4.541-21.418-11.889-28.802l0.002 0.002c-7.291-7.302-17.369-11.819-28.502-11.819-0.060 0-0.119 0-0.179 0h0.009c-0.073 0-0.16-0.001-0.246-0.001-11.217 0-21.379 4.513-28.771 11.823l0.004-0.004c-23.599 23.731-56.271 38.418-92.373 38.418s-68.774-14.687-92.367-38.412l-172.166-172.038c-12.064-11.774-21.874-25.794-28.765-41.392l-0.334-0.848c-6.626-14.843-10.589-32.143-10.836-50.341l-0.001-0.091c0-0.052 0-0.114 0-0.176 0-18.218 3.605-35.594 10.141-51.453l-0.328 0.899c6.967-16.732 16.628-31.019 28.589-43.011l-0.003 0.003c23.894-23.641 56.732-38.282 92.991-38.4h0.791c18.281 0.242 35.581 4.174 51.275 11.083l-0.843-0.331c16.484 7.159 30.519 17.010 42.201 29.143l0.039 0.041 47.915 47.915c7.276 7.251 17.314 11.734 28.4 11.734 0.096 0 0.191 0 0.287-0.001h-0.015c0.121 0.001 0.265 0.002 0.408 0.002 22.386 0 40.533-18.147 40.533-40.533 0-11.263-4.594-21.453-12.010-28.799l-0.003-0.003-46.933-47.147c-19.114-19.605-41.87-35.555-67.189-46.773l-1.376-0.544c-24.215-10.682-52.432-16.988-82.099-17.194h-0.077zM557.056 280.661c-0.026 0-0.056 0-0.086 0-58.605 0-111.653 23.793-150.011 62.246l-0.004 0.004c-7.418 7.349-12.011 17.538-12.011 28.8s4.593 21.451 12.008 28.797l0.003 0.003c7.343 7.465 17.553 12.091 28.843 12.091s21.5-4.626 28.837-12.085l0.005-0.005c23.683-23.581 56.347-38.16 92.416-38.16s68.733 14.579 92.421 38.165l171.259 171.259c22.537 23.495 36.414 55.45 36.414 90.646 0 36.076-14.58 68.747-38.168 92.442l0.005-0.005c-23.479 23.36-55.71 37.943-91.347 38.399l-0.087 0.001h-0.981c-0.066 0-0.145 0-0.223 0-35.213 0-67.17-13.94-90.653-36.603l0.039 0.037-46.677-46.933c-7.386-7.371-17.582-11.93-28.843-11.93s-21.456 4.558-28.843 11.93l0.001-0.001c-7.403 7.255-11.991 17.357-11.991 28.53 0 0.14 0.001 0.28 0.002 0.419v-0.021c0 0.015 0 0.033 0 0.050 0 11.229 4.585 21.387 11.986 28.703l47.663 47.663c37.911 36.946 89.774 59.734 146.959 59.734 0.1 0 0.199 0 0.299 0h1.99c116.375-1.184 210.258-95.799 210.258-212.342 0-57.251-22.656-109.211-59.493-147.402l0.061 0.064-171.989-172.075c-38.356-38.515-91.421-62.355-150.054-62.379h-0.005z" />
<glyph unicode="&#xe92b;" glyph-name="fi-rs-play-button" d="M837.589 497.323l-589.696 368.469c-8.733 5.529-19.365 8.81-30.763 8.81-32.072 0-58.075-25.981-58.112-58.044v-737.027c0-0.062 0-0.136 0-0.21 0-32.024 25.96-57.984 57.984-57.984 11.454 0 22.133 3.321 31.125 9.053l-0.234-0.14 589.696 368.512c16.49 10.453 27.277 28.607 27.277 49.28s-10.787 38.827-27.040 49.139l-0.237 0.141z" />
<glyph unicode="&#xe92c;" glyph-name="fi-rs-save" d="M213.333 64h597.333c47.128 0 85.333 38.205 85.333 85.333v0 469.333c0 0.073 0.001 0.16 0.001 0.247 0 11.721-4.726 22.338-12.377 30.049l-170.664 170.664c-7.709 7.648-18.326 12.374-30.047 12.374-0.087 0-0.173 0-0.26-0.001h-469.32c-47.128 0-85.333-38.205-85.333-85.333v0-597.333c0-47.128 38.205-85.333 85.333-85.333v0zM640 149.333h-256v213.333h256zM554.667 661.333h-85.333v85.333h85.333zM213.333 746.667h85.333v-170.667h341.333v170.667h25.173l145.493-145.493v-451.84h-85.333v213.333c0 47.128-38.205 85.333-85.333 85.333v0h-256c-47.128 0-85.333-38.205-85.333-85.333v0-213.333h-85.333z" />
<glyph unicode="&#xe92d;" glyph-name="fi-rs-slideshow" d="M70.187-21.333c-15.199 0-27.52 12.321-27.52 27.52v0 648.021c0 15.199 12.321 27.52 27.52 27.52v0h883.669c15.199 0 27.52-12.321 27.52-27.52v0-648.021c0-15.199-12.321-27.52-27.52-27.52v0zM418.005 501.717c-8.691-4.743-14.491-13.81-14.507-24.232v-294.402c0-0.004 0-0.010 0-0.015 0-15.175 12.302-27.477 27.477-27.477 5.659 0 10.918 1.71 15.288 4.643l-0.099-0.063 220.928 147.285c7.425 5.007 12.244 13.386 12.244 22.891s-4.818 17.884-12.146 22.829l-0.098 0.062-220.928 147.243c-4.263 2.886-9.521 4.608-15.18 4.608-0.018 0-0.037 0-0.055 0h0.003c-4.704-0.084-9.101-1.322-12.943-3.443l0.143 0.073zM158.507 744.491c-14.725 0.598-26.437 12.681-26.437 27.499s11.711 26.9 26.383 27.497l0.054 0.002h706.987c14.725-0.598 26.437-12.681 26.437-27.499s-11.711-26.9-26.383-27.497l-0.054-0.002zM246.912 862.336c-14.725 0.598-26.437 12.681-26.437 27.499s11.711 26.9 26.383 27.497l0.054 0.002h530.176c14.725-0.598 26.437-12.681 26.437-27.499s-11.711-26.9-26.383-27.497l-0.054-0.002z" />
<glyph unicode="&#xe92e;" glyph-name="fi-rs-star-f" d="M971.349 523.136l-205.696-200.533 48.555-283.179c0.303-1.679 0.476-3.612 0.476-5.585 0-18.239-14.785-33.024-33.024-33.024-5.62 0-10.911 1.404-15.544 3.879l0.177-0.087-254.336 133.717-254.293-133.675c-4.486-2.43-9.822-3.859-15.491-3.859-18.239 0-33.024 14.785-33.024 33.024 0 1.966 0.172 3.892 0.501 5.764l-0.029-0.198 48.725 283.221-205.696 200.533c-6.147 6.003-9.959 14.374-9.959 23.635 0 16.574 12.21 30.296 28.125 32.663l0.181 0.022 284.288 41.259 127.147 257.621c6.094 10.187 17.068 16.901 29.611 16.901s23.516-6.714 29.524-16.745l0.087-0.156 127.147-257.621 284.288-41.259c16.096-2.389 28.306-16.111 28.306-32.685 0-9.261-3.812-17.632-9.953-23.628l-0.006-0.006z" />
<glyph unicode="&#xe92f;" glyph-name="fi-rs-star-o" d="M979.712 556.928c-3.941 11.85-14.086 20.598-26.485 22.463l-0.182 0.023-284.288 41.259-127.147 257.621c-6.094 10.187-17.068 16.901-29.611 16.901s-23.516-6.714-29.524-16.745l-0.087-0.156-127.147-257.621-284.288-41.259c-16.096-2.389-28.306-16.111-28.306-32.685 0-9.261 3.812-17.632 9.953-23.628l0.006-0.006 205.696-200.533-48.683-283.179c-0.303-1.679-0.476-3.612-0.476-5.585 0-18.239 14.785-33.024 33.024-33.024 5.62 0 10.911 1.404 15.544 3.879l-0.177-0.087 254.336 133.675 254.293-133.675c4.455-2.389 9.747-3.793 15.366-3.793 18.239 0 33.024 14.785 33.024 33.024 0 1.973-0.173 3.906-0.505 5.784l0.029-0.199-48.427 283.221 205.696 200.533c6.229 6.021 10.097 14.452 10.097 23.787 0 3.59-0.572 7.046-1.63 10.282l0.066-0.234zM707.072 357.717c-6.159-6.025-9.977-14.42-9.977-23.706 0-1.95 0.168-3.861 0.491-5.718l-0.028 0.198 40.192-234.368-210.432 110.635c-4.443 2.401-9.726 3.812-15.339 3.812s-10.895-1.411-15.513-3.898l0.174 0.086-210.432-110.592 40.192 234.368c0.298 1.669 0.469 3.589 0.469 5.55 0 9.279-3.822 17.665-9.977 23.67l-0.007 0.007-170.24 165.931 235.264 34.133c10.972 1.631 20.058 8.46 24.788 17.858l0.087 0.19 105.259 213.333 105.216-213.333c4.816-9.588 13.903-16.417 24.694-18.026l0.181-0.022 235.264-34.133z" />
<glyph unicode="&#xe930;" glyph-name="fi-rs-text-f" d="M629.333 37.333v117.333h58.667v293.333h-58.667v-58.752h-117.333v176h469.333v-176h-117.333v58.667h-58.667v-293.333h58.667v-117.333zM160 37.333v117.333h117.333v586.667h-117.333v-58.667h-117.333v175.915h586.667v-176h-117.333v58.667h-117.333v-586.667h117.333v-117.333z" />
<glyph unicode="&#xe931;" glyph-name="fi-rs-upload" d="M512.043 66.901c-15.836 0.073-28.648 12.915-28.672 28.755v238.935l-83.328-82.987c-5.136-4.595-11.94-7.419-19.404-7.467h-0.010c-0.067-0.001-0.147-0.001-0.226-0.001-7.814 0-14.894 3.145-20.043 8.238l0.003-0.003c-5.175 5.231-8.372 12.428-8.372 20.372 0 7.552 2.89 14.429 7.623 19.586l-0.019-0.021 132.267 131.925c5.119 5.246 12.26 8.499 20.16 8.499s15.041-3.253 20.154-8.493l0.006-0.006 132.267-131.925c5.136-5.281 8.303-12.5 8.303-20.458 0-3.943-0.778-7.705-2.188-11.14l0.071 0.196c-4.423-10.387-14.545-17.537-26.336-17.537-0.086 0-0.172 0-0.258 0.001h0.013c-0.049 0-0.107 0-0.164 0-7.753 0-14.771 3.148-19.846 8.235l-0.001 0.001-83.328 83.243v-238.933c0.004-0.178 0.006-0.388 0.006-0.599 0-15.694-12.722-28.416-28.416-28.416-0.092 0-0.184 0-0.276 0.001h0.014zM798.293 199.168h-66.005c-15.87 0-28.736 12.866-28.736 28.736s12.866 28.736 28.736 28.736v0h66.005c69.349 0 125.568 56.219 125.568 125.568s-56.219 125.568-125.568 125.568v0h-22.187c-15.665 0.072-28.344 12.751-28.416 28.409v0.007c0 130.157-105.513 235.669-235.669 235.669s-235.669-105.513-235.669-235.669v0c-0.097-15.714-12.858-28.416-28.586-28.416-0.030 0-0.060 0-0.090 0h-22.182c-69.349 0-125.568-56.219-125.568-125.568s56.219-125.568 125.568-125.568v0h66.005c15.87 0 28.736-12.866 28.736-28.736s-12.866-28.736-28.736-28.736v0h-66.005c-100.717 0.369-182.221 82.1-182.221 182.868 0 97.601 76.462 177.344 172.752 182.594l0.466 0.020h3.669l0.597 3.712c16.66 147.471 140.69 261.023 291.243 261.023s274.583-113.552 291.12-259.684l0.464-5.051h3.925c96.751-5.278 173.205-85.017 173.205-182.614 0-100.853-81.642-182.638-182.442-182.869h-0.022z" />
<glyph unicode="&#xe932;" glyph-name="fi-rs-view" d="M56.917 437.291l-14.165 23.509 14.165 23.509c121.813 197.205 281.6 305.109 454.997 305.109s333.184-107.904 455.253-305.109l14.251-23.509-14.251-23.509c-122.069-196.907-281.6-304.896-455.253-304.896s-337.749 107.989-454.997 304.896zM155.52 460.8c98.133-150.187 224.981-234.667 356.437-234.667s258.091 84.437 356.736 234.667c-98.645 150.144-225.323 234.667-356.736 234.667s-258.133-84.565-356.437-234.667zM371.2 460.8c0 77.762 63.038 140.8 140.8 140.8s140.8-63.038 140.8-140.8c0-77.762-63.038-140.8-140.8-140.8v0c-77.762 0-140.8 63.038-140.8 140.8v0z" />
<glyph unicode="&#xe933;" glyph-name="fi-rs-blind" d="M160 161.963l73.344 73.387c-80.642 57.615-145.222 132.645-189.108 219.876l-1.569 3.442c93.867 186.837 268.587 312.875 469.333 312.875 76.135-0.144 148.045-18.088 211.836-49.89l-2.769 1.25 87.68 87.765 55.467-55.467-648.576-648.704zM316.416 458.667c0.047-40.139 12.317-77.403 33.286-108.281l-0.433 0.676 57.173 57.301c-7.331 14.7-11.654 32.009-11.733 50.32v0.026c0.049 64.782 52.551 117.285 117.329 117.333h0.005c18.309-0.096 35.587-4.417 50.937-12.037l-0.676 0.303 57.429 57.301c-30.382 20.46-67.804 32.658-108.075 32.658-107.782 0-195.157-87.375-195.157-195.157 0-0.126 0-0.252 0-0.379v0.020zM383.147 163.925l101.931 101.888c7.875-1.424 17.152-2.404 26.596-2.722l0.326-0.009c108.050 0 195.645 87.58 195.669 195.624v0.002c-0.405 9.869-1.383 19.141-2.912 28.227l0.181-1.304 146.987 147.029c52.071-48.959 95.375-106.503 127.799-170.493l1.609-3.502c-93.867-186.88-268.8-312.917-469.333-312.917-45.92 0.076-90.265 6.694-132.192 18.971l3.339-0.838z" />
<glyph unicode="&#xe934;" glyph-name="fi-rs-eye" d="M42.581 462.251c93.867 186.88 268.587 312.875 469.333 312.875s375.467-125.995 469.333-312.875c-93.867-186.88-268.8-312.917-469.333-312.917s-375.723 126.037-469.333 312.917zM316.245 462.251c0.024-107.976 87.562-195.499 195.541-195.499 107.994 0 195.541 87.547 195.541 195.541 0 107.949-87.474 195.468-195.406 195.541h-0.007c-0.025 0-0.055 0-0.085 0-108.018 0-195.584-87.566-195.584-195.584v0zM394.581 462.251c0 64.801 52.532 117.333 117.333 117.333s117.333-52.532 117.333-117.333c0-64.801-52.532-117.333-117.333-117.333v0c-0.025 0-0.055 0-0.085 0-64.754 0-117.248 52.494-117.248 117.248 0 0.030 0 0.060 0 0.090v-0.005z" />
<glyph unicode="&#xe935;" glyph-name="fi-rs-filter-f" d="M892.373 874.667h-760.747c-0.021 0-0.045 0-0.070 0-13.78 0-25.739-7.795-31.708-19.216l-0.094-0.197c-2.525-4.812-4.006-10.512-4.006-16.558 0-7.945 2.558-15.292 6.894-21.264l-0.072 0.105 278.997-392.917c9.729-13.029 15.587-29.443 15.616-47.225v-320.007c-0.002-0.14-0.003-0.304-0.003-0.469 0-19.653 15.931-35.584 35.584-35.584 0.031 0 0.062 0 0.093 0h-0.005c5.068 0.009 9.891 1.043 14.278 2.907l-0.24-0.091 156.629 59.733c13.685 4.654 23.355 17.391 23.355 32.387 0 0.374-0.006 0.747-0.018 1.118l0.001-0.054v259.925c0.032 17.788 5.89 34.202 15.766 47.442l-0.15-0.21 0.299 0.384 278.741 392.533c4.264 5.867 6.822 13.214 6.822 21.159 0 6.046-1.481 11.747-4.101 16.758l0.095-0.2c-6.030 11.688-18.018 19.542-31.841 19.542-0.041 0-0.082 0-0.122 0h0.006z" />
<glyph unicode="&#xe936;" glyph-name="fi-rs-network" d="M251.008 21.248c-91.382 0-165.461 74.080-165.461 165.461s74.080 165.461 165.461 165.461v0c58.828-1.227 110.219-31.968 140.097-77.971l0.404-0.664 3.328-5.76 169.344 51.755v6.571c-0.11 1.22-0.173 2.64-0.173 4.074 0 6.497 1.286 12.693 3.617 18.348l-0.117-0.32 3.499 6.827-290.133 199.467-4.992-3.968c-18.558-15.016-42.449-24.107-68.463-24.107-0.036 0-0.072 0-0.108 0h0.006c-67.264 0-121.792 54.528-121.792 121.792s54.528 121.792 121.792 121.792v0c48.020-0.377 89.475-28.108 109.586-68.363l0.323-0.715 2.603-5.547 291.413 32.043 0.853 6.827c10.724 79.605 78.227 140.335 159.914 140.335 0.405 0 0.81-0.001 1.214-0.004h-0.062c91.404-0.121 165.468-74.186 165.589-165.578v-0.011c-0.805-43.381-17.489-82.716-44.465-112.577l0.134 0.151c-29.122-32.499-71.226-52.853-118.083-52.853-1.117 0-2.23 0.012-3.342 0.035l0.166-0.003c-0.158-0.001-0.344-0.001-0.53-0.001-69.738 0-129.154 44.192-151.773 106.1l-0.359 1.122-2.347 6.571-308.565-33.664 302.933-212.821 4.992 3.925c18.583 15.043 42.508 24.149 68.561 24.149 0.002 0 0.003 0 0.005 0v0c67.276 0 121.813-54.538 121.813-121.813s-54.538-121.813-121.813-121.813c0 0 0 0 0 0v0c-0.414-0.005-0.904-0.009-1.394-0.009-40.071 0-75.292 20.767-95.487 52.125l-0.271 0.449-3.413 5.504-169.515-51.755v-6.827c0.122-2.382 0.192-5.173 0.192-7.979 0-91.404-73.983-165.529-165.333-165.759h-0.022z" />
<glyph unicode="&#xe937;" glyph-name="fi-rs-list-f" d="M777.557 17.152c-0.223-0.002-0.486-0.003-0.75-0.003-6.662 0-13.171 0.653-19.467 1.899l0.634-0.105c-2.602 0.508-4.917 1.32-7.062 2.416l0.15-0.070-223.573 97.323c-4.492 1.756-9.693 2.773-15.132 2.773-0.035 0-0.070 0-0.106 0h0.005c-0.010 0-0.022 0-0.034 0-5.894 0-11.528-1.112-16.705-3.137l0.312 0.107-222.763-97.323c-1.866-0.721-4.204-1.439-6.598-2.010l-0.399-0.080c-5.639-1.143-12.121-1.798-18.756-1.798-0.381 0-0.762 0.002-1.142 0.006l0.058-0.001c-0.088 0-0.192 0-0.296 0-24.42 0-46.821 8.649-64.304 23.051l0.174-0.139c-20.956 17.239-34.282 43.093-34.517 72.067v671.741c1.498 52.84 44.691 95.105 97.755 95.105 0.133 0 0.266 0 0.399-0.001h534.464c0.16 0.001 0.349 0.002 0.538 0.002 52.287 0 94.819-41.764 96.058-93.753l0.002-0.115v-672.981c0-0.022 0-0.049 0-0.076 0-29.040-13.395-54.952-34.343-71.894l-0.174-0.137c-17.259-14.237-39.6-22.87-63.957-22.87-0.165 0-0.33 0-0.495 0.001h0.025zM341.291 490.539c-17.558-0.654-31.544-15.046-31.544-32.704s13.986-32.050 31.484-32.702l0.059-0.002h341.333c17.558 0.654 31.544 15.046 31.544 32.704s-13.986 32.050-31.484 32.702l-0.059 0.002h-341.333zM341.291 665.472c-17.979 0-32.555-14.575-32.555-32.555s14.575-32.555 32.555-32.555h341.333c17.979 0 32.555 14.575 32.555 32.555s-14.575 32.555-32.555 32.555c0 0 0 0 0 0h-341.333z" />
<glyph unicode="&#xe938;" glyph-name="fi-rs-mail-f" d="M981.333 682.667v-469.333c0-55.541-45.025-100.565-100.565-100.565v0h-737.536c-55.541 0-100.565 45.025-100.565 100.565v0 469.333c0.112 12.085 2.435 23.595 6.583 34.19l-0.225-0.654 407.509-271.573c15.649-10.53 34.921-16.807 55.659-16.807s40.010 6.277 56.019 17.035l-0.361-0.228 407.296 271.531c3.864-9.94 6.128-21.444 6.187-33.469v-0.024zM530.432 500.608l402.304 268.203c-14.803 9.058-32.72 14.421-51.89 14.421-0.027 0-0.055 0-0.082 0h-737.532c-19.117-0.163-36.923-5.635-52.057-15.011l0.43 0.248 402.304-268.203c5.095-3.286 11.319-5.239 17.998-5.239 6.9 0 13.314 2.084 18.645 5.657l-0.121-0.076z" />
<glyph unicode="&#xe939;" glyph-name="fi-rs-editor-f" d="M90.667 27.136c-3.305 3.4-5.343 8.047-5.343 13.169 0 1.565 0.19 3.085 0.549 4.539l-0.027-0.13 52.011 209.067c0.945 3.359 2.677 6.238 4.991 8.532l469.334 469.59 182.997-182.955-469.675-469.333c-2.283-2.291-5.173-3.977-8.408-4.794l-0.126-0.027-209.067-52.096c-1.277-0.37-2.744-0.588-4.261-0.597h-0.005c-0.032 0-0.071 0-0.109 0-4.971 0-9.494 1.914-12.874 5.046l0.012-0.011zM664.661 783.957l64 64c16.955 16.206 39.984 26.181 65.344 26.181s48.389-9.975 65.38-26.215l-0.036 0.034 52.181-52.309c16.784-16.695 27.171-39.807 27.171-65.344s-10.387-48.649-27.166-65.34l-64.004-64.004z" />
<glyph unicode="&#xe93a;" glyph-name="fi-rs-editor-o" d="M75.008-21.419c-0.004 0-0.008 0-0.013 0-9.498 0-18.038 4.105-23.941 10.639l-0.025 0.028c-5.107 5.435-8.244 12.771-8.244 20.841 0 1.166 0.065 2.316 0.193 3.447l-0.013-0.139 21.333 234.667c0.797 7.767 4.216 14.614 9.345 19.755l-0.001-0.001 484.565 484.011 134.315 134.912c19.008 18.964 45.244 30.69 74.219 30.69s55.21-11.726 74.221-30.692l109.993-109.95c18.892-19.041 30.567-45.266 30.567-74.219s-11.675-55.178-30.574-74.225l-618.916-618.916c-5.161-5.103-12.055-8.464-19.721-9.122l-0.119-0.008-235.349-21.333c0-0.384-0.981-0.384-1.835-0.384zM580.523 683.733l-453.333-453.291-16.341-179.2-0.512-5.205 184.32 16.896 453.248 453.376-164.48 164.267zM766.677 852.992c-0.074 0-0.161 0.001-0.248 0.001-11.186 0-21.304-4.569-28.59-11.943l-109.017-108.932-2.816-3.115 167.424-167.424 112.085 112.299c7.399 7.175 11.99 17.208 11.99 28.313 0 0.096 0 0.192-0.001 0.288v-0.015c0 0.003 0 0.007 0 0.011 0 11.268-4.583 21.465-11.988 28.83l-0.002 0.002-109.995 109.696c-7.332 7.506-17.535 12.181-28.831 12.245h-0.012z" />
<glyph unicode="&#xe93b;" glyph-name="fi-rs-resend" d="M512.171 21.333c-0.237 0-0.518-0.001-0.798-0.001-117.813 0-224.36 48.232-300.974 126.028l-0.052 0.053c-77.253 77.54-125.015 184.506-125.015 302.629 0 0.422 0.001 0.845 0.002 1.267v-0.066c0 0.171 0 0.374 0 0.577 0 131.18 58.579 248.679 151.006 327.763l0.589 0.492 5.504 4.736-49.749 89.6 320.768-4.48-164.181-277.589-62.848 113.152-8.235-8.021c-65.992-62.069-107.092-149.957-107.092-247.443 0-187.453 151.961-339.413 339.413-339.413s339.413 151.961 339.413 339.413c0 0.367-0.001 0.733-0.002 1.1v-0.057c0.002 0.425 0.003 0.928 0.003 1.431 0 69.87-20.928 134.852-56.857 189.020l0.79-1.267c-36.813 55.338-88.124 98.402-148.55 124.265l-2.191 0.834 32.341 83.243c155.957-67.502 263.093-220.059 263.093-397.639 0-118.42-47.643-225.713-124.807-303.756l0.040 0.040c-76.65-77.747-183.129-125.91-300.858-125.91-0.265 0-0.53 0-0.795 0.001h0.042z" />
<glyph unicode="&#xe93c;" glyph-name="fi-rs-hashtag" d="M610.688 21.333c-0.145-0.003-0.317-0.004-0.489-0.004-2.649 0-5.214 0.36-7.648 1.033l0.201-0.047c-14.17 3.477-24.517 16.070-24.517 31.079 0 2.829 0.368 5.572 1.057 8.184l-0.050-0.223 46.080 184.277h-327.595l-50.091-199.893c-3.632-14.087-16.177-24.344-31.135-24.448h-0.012c-0.145-0.003-0.317-0.004-0.489-0.004-2.649 0-5.214 0.36-7.648 1.033l0.201-0.047c-8.464 2.181-15.447 7.426-19.845 14.454l-0.080 0.138c-2.903 4.676-4.623 10.35-4.623 16.425 0 2.852 0.379 5.616 1.090 8.244l-0.051-0.22 45.995 184.277h-113.323c-17.852 0.024-32.317 14.489-32.341 32.339v0.002c-0.001 0.089-0.001 0.195-0.001 0.301 0 8.818 3.644 16.784 9.508 22.475l0.008 0.007c5.766 5.925 13.817 9.6 22.727 9.6 0.035 0 0.070 0 0.105 0h129.318l68.821 275.328h-198.187c-17.873 0-32.363 14.489-32.363 32.363s14.489 32.363 32.363 32.363v0h214.4l49.92 199.893c3.737 14.11 16.366 24.35 31.396 24.405h0.006c2.818-0.066 5.52-0.389 8.136-0.947l-0.285 0.051c8.492-2.284 15.474-7.627 19.843-14.746l0.082-0.144c2.918-4.654 4.649-10.31 4.649-16.371 0-2.873-0.389-5.654-1.117-8.296l0.051 0.219-46.080-184.021h327.936l49.835 199.893c3.594 14.102 16.167 24.37 31.143 24.405h0.004c2.897-0.070 5.673-0.393 8.365-0.948l-0.301 0.052c8.47-2.166 15.414-7.55 19.589-14.74l0.081-0.151c3.014-4.827 4.801-10.689 4.801-16.968 0-2.654-0.319-5.233-0.921-7.702l0.046 0.222-46.336-184.021h113.323c17.873 0 32.363-14.489 32.363-32.363s-14.489-32.363-32.363-32.363v0h-129.237l-68.907-275.328h198.187c17.873 0 32.363-14.489 32.363-32.363s-14.489-32.363-32.363-32.363v0h-214.4l-49.835-199.893c-3.664-14.148-16.309-24.43-31.358-24.448h-0.002zM382.848 585.728l-69.077-275.328h327.851l68.821 275.328z" />
<glyph unicode="&#xe93d;" glyph-name="fi-rs-heart-f" d="M512 32.512v0c-107.932 35.177-200.504 91.687-276.803 165.006l0.238-0.227c-115.167 101.194-188.657 247.427-192.754 410.895l-0.014 0.71c0.032 140.606 114.024 254.578 254.635 254.578 83.009 0 156.741-39.72 203.227-101.191l0.464-0.64 11.051-14.635 10.923 14.677c47.097 61.978 120.783 101.642 203.743 101.845h0.033c0.013 0 0.028 0 0.043 0 140.584 0 254.549-113.966 254.549-254.549 0-0.030 0-0.060 0-0.090v0.005c-4.124-164.162-77.612-310.378-192.134-411.017l-0.634-0.546c-76.074-73.081-168.64-129.6-271.515-163.386l-5.050-1.436z" />
<glyph unicode="&#xe93e;" glyph-name="fi-rs-info" d="M813.397 796.715c-78.383 74.772-184.773 120.784-301.91 120.784-241.745 0-437.717-195.973-437.717-437.717 0-106.69 38.171-204.465 101.6-280.413l-0.565 0.695c7.080-8.927 11.358-20.356 11.358-32.784 0-2.719-0.205-5.391-0.6-8l0.036 0.293-11.605-92.629c-0.395-2.957-0.62-6.376-0.62-9.848 0-43.358 35.149-78.507 78.507-78.507 11.253 0 21.953 2.368 31.63 6.632l-0.503-0.198 133.803 57.344c6.653 2.75 14.379 4.347 22.477 4.347 3.56 0 7.048-0.309 10.438-0.9l-0.361 0.052c18.857-2.916 40.609-4.582 62.751-4.582 42.095 0 82.783 6.021 121.251 17.25l-3.052-0.763c168.079 48.951 293.009 190.972 316.213 365.151l0.245 2.251c2.182 16.382 3.427 35.321 3.427 54.551 0 124.797-52.451 237.343-136.511 316.796l-0.207 0.194zM512.085 714.795c0.051 0 0.111 0 0.171 0 31.010 0 56.149-25.139 56.149-56.149s-25.139-56.149-56.149-56.149c-31.010 0-56.149 25.139-56.149 56.149 0 0.045 0 0.090 0 0.135v-0.007c0.073 30.895 25.086 55.924 55.969 56.021h0.009zM579.456 220.843h-134.741c-18.604 0-33.685 15.081-33.685 33.685s15.081 33.685 33.685 33.685h33.664v202.069h-11.221c-18.604 0-33.685 15.081-33.685 33.685s15.081 33.685 33.685 33.685h44.885c18.592 0 33.664-15.072 33.664-33.664v0-235.733h33.664c18.604 0 33.685-15.081 33.685-33.685s-15.081-33.685-33.685-33.685v0z" />
<glyph unicode="&#xe93f;" glyph-name="fi-rs-list-o" d="M758.101 18.987c-2.602 0.507-4.917 1.32-7.062 2.416l0.15-0.070-223.573 97.323c-4.604 1.759-9.929 2.778-15.492 2.778-5.817 0-11.373-1.114-16.468-3.14l0.301 0.106-222.848-97.365c-1.794-0.676-4.102-1.379-6.461-1.955l-0.451-0.093c-5.715-1.117-12.287-1.756-19.009-1.756-24.814 0-47.593 8.71-65.448 23.239l0.19-0.15c-20.933 17.257-34.25 43.1-34.517 72.061v671.746c1.525 52.842 44.726 95.098 97.796 95.098 0.944 0 1.884-0.013 2.821-0.040l-0.138 0.003h532.096c0.11 0 0.241 0.001 0.371 0.001 52.321 0 94.892-41.744 96.224-93.744l0.002-0.123v-672.981c0-0.010 0-0.023 0-0.035 0-29.053-13.394-54.977-34.343-71.936l-0.174-0.136c-17.294-14.263-39.679-22.913-64.085-22.913-0.12 0-0.24 0-0.36 0.001h0.019c-0.427-0.007-0.931-0.010-1.435-0.010-6.402 0-12.662 0.609-18.725 1.773l0.619-0.099zM212.864 783.701v-671.445c0.266-8.773 4.416-16.526 10.781-21.631l0.057-0.044c6.044-5.001 13.875-8.034 22.415-8.034 1.65 0 3.273 0.113 4.863 0.332l-0.184-0.021 219.648 95.787c12.327 5.208 26.66 8.235 41.699 8.235 0.025 0 0.050 0 0.076 0h-0.004c0.058 0 0.127 0 0.196 0 14.681 0 28.678-2.932 41.436-8.242l-0.714 0.263 220.501-96.085c1.093-0.168 2.355-0.264 3.638-0.264 0.221 0 0.441 0.003 0.661 0.008l-0.032-0.001c0.029 0 0.064 0 0.098 0 8.494 0 16.284 3.012 22.361 8.027l-0.060-0.048c6.503 5.083 10.686 12.875 10.837 21.65v672.878c-1.508 16.145-14.991 28.683-31.402 28.683-0.646 0-1.287-0.019-1.923-0.058l0.087 0.004h-532.267c-17.133-0.060-31.192-13.141-32.8-29.86l-0.010-0.134zM544.853 425.301h-203.52c-17.558 0.654-31.544 15.046-31.544 32.704s13.986 32.050 31.484 32.702l0.059 0.002h341.333c17.558-0.654 31.544-15.046 31.544-32.704s-13.986-32.050-31.484-32.702l-0.059-0.002zM544.853 600.235h-203.52c-0.352-0.014-0.764-0.021-1.179-0.021-18.003 0-32.597 14.594-32.597 32.597s14.594 32.597 32.597 32.597c0.415 0 0.828-0.008 1.238-0.023l-0.059 0.002h341.333c0.352 0.014 0.764 0.021 1.179 0.021 18.003 0 32.597-14.594 32.597-32.597s-14.594-32.597-32.597-32.597c-0.415 0-0.828 0.008-1.238 0.023l0.059-0.002z" />
<glyph unicode="&#xe940;" glyph-name="fi-rs-minus" d="M565.248 501.248h-479.915v-106.667h853.333v106.667z" />
<glyph unicode="&#xe941;" glyph-name="fi-rs-shield" d="M905.984 675.712c-1.109 24.704-1.109 48.256-1.109 71.851 0.004 0.179 0.005 0.391 0.005 0.603 0 18.262-14.804 33.067-33.067 33.067-0.212 0-0.423-0.002-0.634-0.006h0.032c-6.432-0.328-13.967-0.515-21.545-0.515-122.173 0-233.001 48.576-314.222 127.468l0.108-0.105c-6.151 5.677-14.402 9.158-23.467 9.158s-17.316-3.481-23.49-9.179l0.024 0.022c-81.114-78.791-191.945-127.371-314.122-127.371-7.635 0-15.226 0.19-22.769 0.565l1.061-0.042c-0.179 0.004-0.391 0.005-0.603 0.005-18.262 0-33.067-14.804-33.067-33.067 0-0.212 0.002-0.423 0.006-0.634v0.032c0-23.552 0-46.933-1.109-71.851-4.48-235.733-11.221-558.933 382.763-694.827l11.221-2.261 11.221 2.261c392.875 135.851 387.243 457.984 382.763 694.827zM485.077 349.056c-6.263-5.501-14.505-8.883-23.536-8.96h-1.125c-9.443 0.182-17.847 4.483-23.514 11.175l-0.038 0.046-104.405 115.627 50.432 45.056 81.92-90.923 181.845 172.843 45.995-49.536z" />
<glyph unicode="&#xe942;" glyph-name="fi-rs-stories-o" d="M666.496 487.893l-220.8 124.587c-6.702 3.91-14.754 6.218-23.345 6.218-8.829 0-17.088-2.438-24.142-6.677l0.212 0.118c-13.762-7.983-22.869-22.647-22.869-39.438 0-0.025 0-0.050 0-0.075v0.004-249.173c0-0.021 0-0.046 0-0.071 0-16.791 9.107-31.455 22.652-39.321l0.217-0.117c6.842-4.121 15.101-6.559 23.93-6.559 8.591 0 16.642 2.308 23.569 6.338l-0.224-0.12 220.8 124.587c14.119 7.936 23.501 22.819 23.501 39.893s-9.382 31.957-23.272 39.775l-0.229 0.118zM285.909 38.229c-8.477 4.471-14.837 11.998-17.681 21.079l-0.069 0.254c-1.042 3.162-1.642 6.801-1.642 10.58 0 6.27 1.654 12.155 4.548 17.24l-0.090-0.172c6.088 11.5 17.978 19.201 31.666 19.201 0.087 0 0.175 0 0.262-0.001h-0.013c0.013 0 0.028 0 0.043 0 6.233 0 12.097-1.58 17.214-4.361l-0.19 0.094c53.933-29.236 118.079-46.421 186.239-46.421 0.030 0 0.060 0 0.091 0h-0.004c0.202 0 0.441-0.001 0.679-0.001 31.923 0 62.956 3.811 92.669 11.002l-2.682-0.548c2.462 0.488 5.292 0.768 8.188 0.768 0.016 0 0.033 0 0.049 0h-0.003c0.126 0.002 0.276 0.002 0.425 0.002 20.030 0 36.267-16.237 36.267-36.267 0-17.262-12.060-31.707-28.214-35.37l-0.243-0.046c-32.2-7.728-69.17-12.16-107.174-12.16-0.002 0-0.004 0-0.005 0h0.001c-80.66 0.011-156.551 20.421-222.799 56.35l2.469-1.225zM697.472 62.037c-3.341 5.357-5.322 11.861-5.322 18.829 0 3.071 0.385 6.052 1.109 8.898l-0.054-0.249c2.537 9.492 8.455 17.313 16.356 22.266l0.156 0.091c116.34 70.577 192.885 196.547 192.885 340.395 0 218.977-177.379 396.526-396.292 396.8h-0.027c-18.976 1.342-33.863 17.066-33.863 36.267s14.886 34.925 33.747 36.26l0.116 0.007c0.083 0 0.182 0 0.28 0 259.206 0 469.333-210.128 469.333-469.333 0-170.395-90.805-319.582-226.664-401.809l-2.096-1.177c-5.248-3.19-11.592-5.078-18.378-5.078-0.049 0-0.098 0-0.147 0h0.008c-13.177 0.067-24.688 7.134-31.012 17.67l-0.092 0.165zM183.808 111.616c-63.948 60.611-110.744 138.719-132.734 226.655l-0.685 3.233c-0.633 2.555-0.996 5.489-0.996 8.507 0 7.007 1.957 13.557 5.355 19.133l-0.092-0.162c4.993 8.137 12.947 14.044 22.329 16.251l0.242 0.048c2.371 0.6 5.092 0.945 7.894 0.945 0.225 0 0.449-0.002 0.673-0.007l-0.034 0.001c16.971-0.046 31.207-11.701 35.189-27.439l0.054-0.251c19.125-77.014 58.653-142.993 112.503-194.007l0.18-0.169c6.978-6.632 11.319-15.982 11.319-26.347 0-20.060-16.262-36.322-36.322-36.322-9.696 0-18.504 3.799-25.018 9.99l0.016-0.015zM72.491 459.349h-0.256c-9.935 0.919-18.577 5.803-24.439 13.032l-0.052 0.066c-5.224 6.283-8.395 14.435-8.395 23.328 0 1.206 0.058 2.398 0.172 3.574l-0.012-0.149c5.785 55.902 20.493 107.074 42.733 153.98l-1.218-2.855c5.943 12.43 18.417 20.864 32.86 20.864 0.012 0 0.025 0 0.037 0h-0.002c5.531-0.050 10.761-1.287 15.464-3.467l-0.232 0.097c8.682-4.13 15.339-11.341 18.648-20.186l0.082-0.251c1.464-3.763 2.312-8.119 2.312-12.673 0-5.448-1.214-10.612-3.386-15.237l0.093 0.219c-17.817-37.318-30.223-80.676-34.85-126.333l-0.137-1.667c-1.78-18.479-17.228-32.811-36.024-32.811-0.055 0-0.111 0-0.166 0h0.009c-0.981 0.213-2.176 0.469-3.243 0.469zM187.392 739.243c-8.185 6.702-13.367 16.807-13.367 28.123 0 8.795 3.131 16.858 8.338 23.137l-0.048-0.060c2.731 3.413 5.589 6.571 9.003 10.453 6.575 7.806 16.337 12.747 27.255 12.8h0.009c0.056 0 0.123 0.001 0.189 0.001 9.073 0 17.348-3.416 23.609-9.032l-0.033 0.029c7.692-6.694 12.526-16.5 12.526-27.436 0-9.109-3.354-17.434-8.895-23.808l0.038 0.044c-2.645-2.901-4.992-5.845-7.509-8.747-6.584-8.172-16.591-13.356-27.808-13.356-0.124 0-0.247 0.001-0.371 0.002h0.019c-0.125-0.002-0.272-0.002-0.419-0.002-8.536 0-16.381 2.96-22.565 7.909l0.072-0.055z" />
<glyph unicode="&#xe943;" glyph-name="fi-rs-time-f" d="M512 874.667c-235.641 0-426.667-191.025-426.667-426.667s191.025-426.667 426.667-426.667c235.641 0 426.667 191.025 426.667 426.667v0c0 235.641-191.025 426.667-426.667 426.667v0zM655.787 304.213c-7.017-7.012-16.709-11.348-27.413-11.348s-20.396 4.337-27.414 11.349l-116.352 116.352c-7.033 7.017-11.386 16.717-11.392 27.433v232.748c0 21.42 17.364 38.784 38.784 38.784s38.784-17.364 38.784-38.784v0-216.661l105.003-105.003c7.012-7.017 11.348-16.709 11.348-27.413s-4.337-20.396-11.349-27.414v0z" />
<glyph unicode="&#xe944;" glyph-name="fi-rs-time-o" d="M210.176 146.176c-76.987 77.090-124.597 183.534-124.597 301.099 0 235.335 190.777 426.112 426.112 426.112s426.112-190.777 426.112-426.112c0-235.286-190.698-426.033-425.965-426.112h-0.008c-0.314-0.001-0.687-0.001-1.059-0.001-117.482 0-223.801 47.792-300.575 124.995l-0.019 0.019zM143.573 447.915c0.122-203.172 164.853-367.829 368.043-367.829 203.264 0 368.043 164.778 368.043 368.043 0 203.129-164.559 367.824-367.638 368.042h-0.021c-203.358-0.218-368.16-164.989-368.427-368.316v-0.026zM491.307 373.589c0 0 0 0 0 0-19.404 0-35.145 15.682-35.242 35.063v313.268c0 19.417 15.74 35.157 35.157 35.157s35.157-15.74 35.157-35.157v-278.016h160.683c19.417 0 35.157-15.74 35.157-35.157s-15.74-35.157-35.157-35.157v0z" />
<glyph unicode="&#xe945;" glyph-name="fi-rs-tv" d="M878.848 48.64h-725.675c0 0-0.001 0-0.001 0-58.73 0-106.375 47.465-106.665 106.127v429.681c0 58.91 47.756 106.667 106.667 106.667v0h285.013l-93.099 93.013c-5.866 5.855-9.494 13.949-9.494 22.891s3.629 17.036 9.494 22.89l0.001 0.001c5.896 5.802 13.981 9.394 22.905 9.429h0.007c0.014 0 0.030 0 0.047 0 8.814 0 16.786-3.607 22.52-9.426l0.004-0.004 122.24-121.899 3.072-3.456 199.509 199.509c5.75 5.308 13.464 8.563 21.938 8.563 17.885 0 32.384-14.499 32.384-32.384 0-8.485-3.263-16.207-8.603-21.981l0.020 0.022-167.083-167.125h284.757c58.8-0.146 106.411-47.846 106.411-106.666 0 0 0 0 0 0v0-429.525c-0.049-58.717-47.647-106.301-106.366-106.325h-0.002zM153.173 626.133c-23.078 0-41.789-18.696-41.813-41.768v-429.527c0-23.093 18.72-41.813 41.813-41.813v0h725.675c23.065 0.049 41.746 18.745 41.771 41.811v429.613c-0.024 23.060-18.711 41.746-41.768 41.771h-0.002zM404.907 189.099c-17.867 0.024-32.341 14.514-32.341 32.384 0 0 0 0 0 0v0 296.491c0.072 17.689 14.429 32.001 32.128 32.001 0.075 0 0.15 0 0.225-0.001h-0.012c5.882-0.019 11.418-1.485 16.275-4.060l-0.19 0.092 259.328-148.267c9.735-5.707 16.169-16.118 16.169-28.032s-6.434-22.325-16.017-27.949l-0.152-0.083-259.328-148.267c-4.546-2.708-10.025-4.31-15.877-4.31-0.043 0-0.086 0-0.129 0h0.007zM437.248 462.165v0-184.832l161.749 92.373-161.749 92.459z" />
<glyph unicode="&#xe946;" glyph-name="fi-rs-devices" d="M746.667 72.491h188.331c25.662 0.337 46.336 21.219 46.336 46.93 0 0.001 0 0.003 0 0.004v0 281.6c0 25.921-21.013 46.933-46.933 46.933v0h-187.733c-25.921 0-46.933-21.013-46.933-46.933v0-281.6c0-25.921 21.013-46.933 46.933-46.933v0zM605.867 213.291v187.733c0 77.762 63.038 140.8 140.8 140.8v0h140.8v140.8c0 77.762-63.038 140.8-140.8 140.8v0h-563.2c-77.762 0-140.8-63.038-140.8-140.8v0-328.533c0-77.762 63.038-140.8 140.8-140.8v0h234.667v-46.933h-46.933c-25.921 0-46.933-21.013-46.933-46.933s21.013-46.933 46.933-46.933h187.733c25.921 0 46.933 21.013 46.933 46.933s-21.013 46.933-46.933 46.933h-46.933v46.933z" />
<glyph unicode="&#xe947;" glyph-name="fi-rs-discount" d="M373.333 554.709c0 17.673 14.327 32 32 32s32-14.327 32-32c0-17.673-14.327-32-32-32v0c-17.663 0.024-31.976 14.337-32 31.998v0.002zM618.667 373.291c-17.673 0-32-14.327-32-32s14.327-32 32-32c17.673 0 32 14.327 32 32v0c-0.024 17.663-14.337 31.976-31.998 32h-0.002zM907.264 357.717c2.067-14.435 6.958-27.405 14.109-38.814l-0.242 0.414c10.545-14.371 16.875-32.408 16.875-51.923 0-8.243-1.129-16.222-3.241-23.792l0.148 0.621c-11.733-24.32-41.643-30.72-68.267-36.352-14.191-1.795-27.020-6.324-38.393-13.053l0.462 0.253c-2.886-8.876-4.55-19.090-4.55-29.693 0-3.638 0.196-7.231 0.578-10.767l-0.038 0.438c0.911-4.781 1.431-10.281 1.431-15.902 0-22.326-8.217-42.733-21.791-58.362l0.093 0.109c-12.083-6.556-26.455-10.411-41.728-10.411-12.595 0-24.577 2.621-35.432 7.348l0.573-0.222c-9.505 3.36-20.465 5.301-31.88 5.301-2.926 0-5.822-0.128-8.684-0.377l0.371 0.026c-6.144-2.944-14.805-21.547-20.523-33.877-11.435-24.619-24.405-52.48-50.944-58.496-2.961-0.704-6.361-1.109-9.856-1.109v0c-23.698 3.699-44.282 14.939-59.692 31.145l-0.041 0.044c-11.477 9.387-27.221 22.272-34.816 22.272s-23.339-12.8-34.816-22.272c-20.565-16.811-43.904-35.968-69.632-29.867-26.539 6.016-39.509 33.92-50.944 58.496-4.78 13.13-11.757 24.404-20.583 33.943l0.060-0.066c-2.505 0.227-5.417 0.357-8.36 0.357-11.398 0-22.342-1.943-32.519-5.516l0.688 0.21c-10.282-4.507-22.265-7.13-34.861-7.13-15.273 0-29.645 3.856-42.195 10.648l0.47-0.232c-13.487 15.516-21.707 35.922-21.707 58.248 0 5.638 0.524 11.154 1.527 16.501l-0.086-0.552c0.343 3.096 0.538 6.685 0.538 10.32 0 10.605-1.664 20.822-4.744 30.404l0.195-0.703c-10.909 6.486-23.739 11.016-37.441 12.75l-0.489 0.050c-26.411 5.632-56.363 12.075-68.267 36.395-1.947 6.921-3.066 14.87-3.066 23.079 0 19.533 6.335 37.587 17.063 52.219l-0.173-0.247c6.915 10.994 11.806 23.965 13.804 37.87l0.062 0.53c-1.493 6.443-17.536 18.944-28.16 27.179-21.077 16.555-45.483 35.499-45.483 62.891s24.405 46.336 45.909 63.019c10.624 8.235 26.667 20.736 28.16 27.179-2.068 14.435-6.959 27.405-14.109 38.815l0.242-0.415c-10.54 14.368-16.866 32.401-16.866 51.911 0 8.232 1.126 16.2 3.233 23.76l-0.148-0.621c11.733 24.32 41.643 30.72 68.267 36.395 14.177 1.792 26.991 6.322 38.347 13.052l-0.459-0.252c2.888 8.869 4.554 19.076 4.554 29.671 0 3.646-0.197 7.246-0.581 10.789l0.039-0.439c-0.915 4.792-1.438 10.303-1.438 15.937 0 22.33 8.219 42.74 21.797 58.37l-0.093-0.109c12.081 6.559 26.453 10.415 41.726 10.415 12.596 0 24.579-2.623 35.434-7.352l-0.573 0.222c9.528-3.354 20.515-5.292 31.954-5.292 2.9 0 5.77 0.125 8.607 0.369l-0.369-0.026c8.769 9.471 15.747 20.746 20.302 33.189l0.22 0.688c11.435 24.576 24.405 52.48 50.944 58.496 25.6 5.803 49.024-13.227 69.632-29.867 11.477-9.387 27.221-22.272 34.816-22.272s23.339 12.8 34.816 22.272c20.608 16.853 43.904 35.925 69.632 29.867 26.496-6.016 39.509-33.92 50.944-58.496 4.778-13.13 11.756-24.405 20.582-33.943l-0.060 0.065c2.479-0.221 5.362-0.347 8.275-0.347 11.427 0 22.401 1.94 32.61 5.507l-0.693-0.211c10.314 4.539 22.338 7.181 34.979 7.181 15.31 0 29.716-3.875 42.289-10.698l-0.468 0.232c13.487-15.516 21.707-35.922 21.707-58.248 0-5.638-0.524-11.154-1.527-16.501l0.086 0.552c-0.343-3.097-0.539-6.688-0.539-10.324 0-10.604 1.664-20.819 4.745-30.399l-0.195 0.702c10.91-6.481 23.739-11.011 37.44-12.749l0.491-0.051c26.411-5.632 56.363-12.032 68.267-36.352 1.947-6.921 3.066-14.87 3.066-23.079 0-19.533-6.335-37.587-17.063-52.219l0.173 0.247c-6.912-10.994-11.804-23.965-13.804-37.869l-0.063-0.531c1.493-6.485 17.536-18.944 28.16-27.179 21.333-16.683 45.909-35.627 45.909-63.019s-24.405-46.336-45.909-63.019c-10.624-8.235-26.667-20.736-28.16-27.179zM405.333 479.957c41.237 0 74.667 33.429 74.667 74.667s-33.429 74.667-74.667 74.667c-41.237 0-74.667-33.429-74.667-74.667v0c0.049-41.218 33.449-74.618 74.662-74.667h0.005zM676.395 582.357c3.705 3.832 5.989 9.060 5.989 14.821 0 11.782-9.551 21.333-21.333 21.333-5.761 0-10.988-2.283-14.827-5.994l-298.661-298.661c-4.018-3.885-6.513-9.323-6.513-15.345 0-11.782 9.551-21.333 21.333-21.333 6.021 0 11.46 2.495 15.339 6.507l0.006 0.006zM693.461 341.461c-0.097 41.164-33.489 74.496-74.666 74.496-41.237 0-74.667-33.429-74.667-74.667 0-41.192 33.356-74.594 74.531-74.667h0.007c41.248 0.049 74.667 33.498 74.667 74.752v0z" />
<glyph unicode="&#xe948;" glyph-name="fi-rs-handshake" d="M383.147 34.261l-204.8 192.768h-108.245c-15.199 0-27.52 12.321-27.52 27.52v337.323c0 15.199 12.321 27.52 27.52 27.52v0h58.752c0.041 0 0.089 0 0.137 0 13.097 0 24.952 5.316 33.526 13.909l0.001 0.001c18.416 18.578 43.944 30.081 72.159 30.081 0.132 0 0.263 0 0.395-0.001h143.127c0.029 0 0.062 0 0.096 0 7.049 0 13.928-0.73 20.564-2.119l-0.65 0.114-114.517-93.867c-18.507-15.255-30.214-38.183-30.214-63.844 0-22.764 9.213-43.377 24.115-58.312l22.739-22.739c29.904-29.788 71.154-48.205 116.705-48.205 37.307 0 71.728 12.353 99.397 33.192l-0.422-0.304 10.411 7.851c40.286-23.844 88.788-37.933 140.581-37.933 0.407 0 0.813 0.001 1.22 0.003h38.338l8.021-8.021c-89.406-94.662-163.661-204.862-218.101-325.901l-2.997-7.453c-14.326-14.463-34.191-23.418-56.147-23.418-21.077 0-40.226 8.252-54.394 21.701l0.035-0.033zM709.632 188.928c49.306 20.638 83.316 68.489 83.316 124.285 0 37.089-15.028 70.668-39.327 94.98l-24.149 24.149h-61.269c-0.172 0-0.375-0.001-0.579-0.001-54.236 0-104.012 19.093-142.973 50.925l0.406-0.321-41.984-31.488c-18.165-13.622-41.085-21.813-65.918-21.813-30.36 0-57.86 12.243-77.833 32.060l-22.734 22.734c-4.992 4.963-8.082 11.834-8.082 19.428 0 8.543 3.91 16.172 10.039 21.195l0.048 0.038 130.901 107.179c23.526 19.326 53.93 31.057 87.072 31.104h144.095c31.112-0.059 59.8-10.387 82.869-27.774l-0.352 0.254c13.621-10.287 30.831-16.486 49.487-16.512h141.19c15.199 0 27.52-12.321 27.52-27.52v0-337.323c0-15.199-12.321-27.52-27.52-27.52h-91.264c-31.913-0.037-61.151-11.459-83.879-30.421l0.21 0.17c-24.306-20.38-54.318-34.746-87.302-40.419l-1.104-0.157c7.559 9.435 13.996 20.244 18.832 31.884l0.325 0.884zM316.544 733.781l-43.989 43.989c-4.509 4.88-7.274 11.429-7.274 18.623 0 15.175 12.302 27.477 27.477 27.477 7.195 0 13.743-2.765 18.642-7.291l-0.019 0.017 43.989-43.989c5.452-5.037 8.854-12.223 8.854-20.204 0-15.175-12.302-27.477-27.477-27.477-7.981 0-15.167 3.402-20.187 8.836l-0.017 0.019zM551.211 733.781c-4.983 4.961-8.067 11.827-8.067 19.413s3.084 14.452 8.066 19.412l43.99 43.99c4.88 4.509 11.429 7.274 18.623 7.274 15.175 0 27.477-12.302 27.477-27.477 0-7.195-2.765-13.743-7.291-18.642l0.017 0.019-43.989-43.989c-4.957-4.994-11.824-8.085-19.413-8.085s-14.457 3.091-19.412 8.083l-0.002 0.002zM425.813 767.915v87.979c0.598 14.725 12.681 26.437 27.499 26.437s26.9-11.711 27.497-26.383l0.002-0.054v-88.021c-0.598-14.725-12.681-26.437-27.499-26.437s-26.9 11.711-27.497 26.383l-0.002 0.054z" />
<glyph unicode="&#xe949;" glyph-name="fi-rs-location-o" d="M304.512 200.533c-95.659 144.256-152.747 277.333-152.747 356.352 0 198.964 161.292 360.256 360.256 360.256s360.256-161.292 360.256-360.256v0c0-78.592-57.173-212.096-152.661-356.352-83.755-126.507-173.013-222.080-207.488-222.080s-123.947 95.701-207.616 222.080zM303.659 765.184c-53.369-53.033-86.401-126.477-86.401-207.636 0-0.248 0-0.496 0.001-0.743v0.038c0-44.672 21.333-130.816 122.069-287.104 51.705-82.465 107.841-154.107 170.573-219.36l-0.418 0.438 2.603-2.176 2.432 2.176c62.398 64.786 118.54 136.435 166.94 213.442l3.214 5.481c100.907 155.989 121.984 242.176 121.984 287.104 0 0.024 0 0.051 0 0.079 0 162.71-131.903 294.613-294.613 294.613-81.386 0-155.064-33-208.383-86.35l-0.001-0.001zM333.525 556.843c0 98.498 79.849 178.347 178.347 178.347s178.347-79.849 178.347-178.347c0-98.498-79.849-178.347-178.347-178.347-0.030 0-0.060 0-0.090 0h0.005c-98.389 0.291-178.042 80.094-178.091 178.513v0.005zM399.104 556.843c0-0.013 0-0.028 0-0.043 0-62.304 50.507-112.811 112.811-112.811s112.811 50.507 112.811 112.811c0 62.304-50.507 112.811-112.811 112.811-0.045 0-0.090 0-0.135 0h0.007c-0.038 0-0.083 0-0.128 0-62.139 0-112.512-50.373-112.512-112.512 0-0.030 0-0.060 0-0.090v0.005z" />
<glyph unicode="&#xe94a;" glyph-name="fi-rs-mail-o" d="M803.115 87.765h-581.931c-98.333 0.482-177.913 80.092-178.347 178.39v363.775c0.266 98.356 79.977 178.007 178.33 178.176h581.947c98.378-0.193 178.093-79.819 178.432-178.144v-363.765c-0.434-98.37-80.062-177.998-178.39-178.432h-0.042zM109.355 646.699v0l-0.597-6.187c-0.256-3.328-0.427-6.827-0.427-10.752v-363.733c0.121-62.259 50.62-112.683 112.896-112.683 0 0 0 0 0 0h581.931c62.25 0 112.719 50.439 112.768 112.678v363.738c0 3.499-0.256 6.827-0.512 11.008l-0.683 5.931-302.251-205.995c-28.045-19.649-62.876-31.399-100.452-31.399-37.417 0-72.113 11.651-100.658 31.523l0.577-0.38-302.507 206.251zM221.184 742.528c-0.121 0-0.263 0.001-0.406 0.001-31.005 0-59.066-12.608-79.334-32.977l-3.077-3.077 310.187-211.755c17.749-12.365 39.766-19.756 63.509-19.756s45.761 7.391 63.876 19.998l-0.367-0.242 310.4 211.755-3.072 3.072c-20.273 20.374-48.333 32.982-79.338 32.982-0.143 0-0.285 0-0.428-0.001h0.022z" />
<glyph unicode="&#xe94b;" glyph-name="fi-rs-multimedia" d="M820.267 68.949v204.8h161.067v-176.085c0-0.013 0-0.028 0-0.043 0-15.859-12.856-28.715-28.715-28.715-0.015 0-0.030 0-0.045 0h0.002zM261.333 68.949v758.229h501.675v-758.229zM411.648 555.349v-214.229c0.069-15.853 12.937-28.678 28.8-28.678 5.293 0 10.253 1.428 14.515 3.92l-0.136-0.074 184.491 107.093c8.605 5.087 14.285 14.318 14.285 24.875s-5.68 19.787-14.151 24.801l-0.134 0.073-184.491 107.093c-4.102 2.456-9.048 3.913-14.333 3.925h-0.003c-0.051 0-0.111 0.001-0.171 0.001-15.906 0-28.8-12.894-28.8-28.8 0-0.060 0-0.12 0.001-0.18v0.009zM71.552 68.949c-0.013 0-0.028 0-0.043 0-15.859 0-28.715 12.856-28.715 28.715 0 0.015 0 0.030 0 0.045v-0.002 176.085h161.067v-204.8zM820.395 331.264v233.6h160.939v-233.6zM42.795 331.264v233.6h161.067v-233.6zM820.395 622.336v204.8h132.267c0.013 0 0.028 0 0.043 0 15.859 0 28.715-12.856 28.715-28.715 0-0.015 0-0.030 0-0.045v0.002-176.085zM42.795 622.336v176.085c0 0.013 0 0.028 0 0.043 0 15.859 12.856 28.715 28.715 28.715 0.015 0 0.030 0 0.045 0h132.265v-204.8z" />
<glyph unicode="&#xe94c;" glyph-name="fi-rs-user-f" d="M512 917.333c-259.206 0-469.333-210.128-469.333-469.333s210.128-469.333 469.333-469.333c259.206 0 469.333 210.128 469.333 469.333v0c-0.774 258.894-210.44 468.56-469.26 469.333h-0.074zM512 776.533c0.756 0.015 1.647 0.023 2.541 0.023 76.371 0 138.283-61.911 138.283-138.283 0-0.893-0.008-1.785-0.025-2.674l0.002 0.133c0.015-0.756 0.023-1.647 0.023-2.541 0-76.371-61.911-138.283-138.283-138.283-0.893 0-1.785 0.008-2.674 0.025l0.133-0.002c-0.756-0.015-1.647-0.023-2.541-0.023-76.371 0-138.283 61.911-138.283 138.283 0 0.893 0.008 1.785 0.025 2.674l-0.002-0.133c-0.015 0.756-0.023 1.647-0.023 2.541 0 76.371 61.911 138.283 138.283 138.283 0.893 0 1.785-0.008 2.674-0.025l-0.133 0.002zM512 110.080c-116.68 0.619-219.475 59.504-280.844 149.020l-0.756 1.167c0 93.867 187.733 145.493 281.6 145.493s281.6-51.627 281.6-145.493c-62.125-90.682-164.92-149.567-281.505-150.186h-0.095z" />
</font>
</defs>
</svg>
